<?xml version="1.0" standalone="no"?>
<!DOCTYPE svg PUBLIC "-//W3C//DTD SVG 20010904//EN"
 "http://www.w3.org/TR/2001/REC-SVG-20010904/DTD/svg10.dtd">
<svg version="1.0" xmlns="http://www.w3.org/2000/svg"
 width="568.000000pt" height="568.000000pt" viewBox="0 0 568.000000 568.000000"
 preserveAspectRatio="xMidYMid meet">
<metadata>
Created by potrace 1.11, written by Peter Selinger 2001-2013
</metadata>
<g transform="translate(0.000000,568.000000) scale(0.100000,-0.100000)"
fill="#000000" stroke="none">
<path d="M2777 5544 c-7 -8 15 -44 27 -44 5 0 2 8 -7 18 -10 10 -14 22 -10 25
3 4 4 7 1 7 -2 0 -7 -3 -11 -6z"/>
<path d="M2573 5528 c-17 -23 -25 -44 -9 -24 14 17 20 16 18 -5 -1 -3 5 -6 13
-6 18 0 28 24 13 33 -7 5 -8 2 -3 -6 5 -8 3 -11 -6 -8 -8 3 -13 11 -11 17 3
15 -3 14 -15 -1z"/>
<path d="M2736 5526 c4 -10 0 -13 -13 -11 -10 2 -18 4 -18 5 0 1 -7 3 -16 5
-9 1 -16 -3 -16 -11 0 -7 5 -10 10 -7 6 3 7 1 3 -5 -4 -6 -14 -8 -23 -5 -10 4
-14 2 -10 -4 3 -5 0 -10 -8 -10 -12 0 -12 4 2 21 18 20 18 20 -7 4 -14 -9 -24
-22 -22 -29 2 -10 0 -10 -11 0 -12 9 -16 9 -20 -1 -4 -10 -6 -10 -6 0 -1 6 -6
12 -12 12 -5 0 -7 -5 -3 -12 4 -7 -6 -3 -22 9 -31 22 -76 25 -95 6 -8 -8 -8
-13 0 -18 6 -3 11 -3 10 2 -4 22 3 25 17 7 11 -13 14 -14 11 -4 -6 21 29 24
37 3 6 -14 4 -14 -11 -2 -15 12 -16 12 -10 -4 4 -10 3 -16 -2 -12 -5 3 -12 -1
-14 -7 -4 -10 -6 -10 -6 0 -1 6 -6 12 -12 12 -5 0 -7 -5 -3 -11 3 -6 -5 -3
-20 6 -14 10 -26 14 -26 11 0 -4 -8 -2 -19 3 -14 8 -22 6 -35 -8 -13 -14 -14
-21 -5 -27 8 -5 10 -3 4 7 -5 8 -5 11 0 7 4 -4 14 -3 20 2 17 14 45 2 45 -19
0 -9 -3 -12 -8 -6 -11 15 -33 17 -49 3 -18 -15 -35 7 -27 37 4 17 3 17 -8 -3
-11 -18 -16 -20 -26 -10 -11 11 -12 9 -6 -5 4 -11 12 -16 22 -12 9 3 13 3 9
-1 -4 -4 -2 -13 4 -21 8 -8 8 -13 1 -13 -6 0 -12 5 -14 12 -3 7 -9 8 -19 3
-20 -13 -40 -15 -33 -4 3 5 -1 9 -8 9 -11 0 -10 2 0 9 11 7 11 9 -1 14 -12 5
-15 -1 -12 -28 2 -29 1 -32 -11 -20 -8 7 -11 22 -8 32 4 14 4 15 -4 4 -5 -7
-15 -10 -22 -6 -9 6 -9 3 0 -15 6 -12 9 -24 6 -28 -3 -3 -6 1 -6 9 0 12 -2 11
-11 -1 -9 -13 -10 -12 -5 2 3 12 -2 22 -16 29 -12 7 -18 7 -14 1 3 -6 3 -12
-1 -15 -5 -2 -3 -3 3 -1 6 1 11 -4 11 -11 0 -10 -10 -9 -38 6 -31 15 -37 16
-33 4 4 -8 10 -13 14 -10 4 3 11 -2 14 -10 4 -12 2 -14 -11 -6 -18 9 -47 -4
-89 -42 -15 -12 -24 -15 -29 -8 -4 8 -12 8 -25 1 -25 -14 -37 -13 -22 2 7 7
12 16 12 20 0 4 -9 -1 -20 -12 -20 -20 -43 -22 -70 -5 -13 7 -13 6 -2 -7 11
-14 9 -20 -12 -41 -19 -19 -26 -22 -30 -10 -4 9 -2 11 6 7 7 -5 8 -3 3 6 -6 9
-4 11 5 5 9 -6 11 -4 5 5 -5 9 -4 11 3 6 7 -4 12 -2 12 3 0 14 -17 14 -25 1
-4 -6 -10 -8 -15 -5 -5 3 -7 -7 -4 -21 6 -30 -13 -49 -33 -33 -6 6 -9 18 -7
27 5 15 4 14 -6 -1 -6 -9 -15 -15 -20 -12 -4 3 -11 -2 -14 -10 -5 -13 -10 -14
-27 -5 -17 10 -21 8 -26 -10 -3 -12 -11 -19 -18 -17 -17 7 -14 -26 4 -41 13
-10 11 -10 -11 -1 -18 8 -24 17 -21 27 4 10 2 13 -5 8 -17 -10 -15 -33 3 -40
8 -3 15 -11 14 -18 0 -10 -2 -10 -6 0 -9 22 -25 13 -17 -10 8 -27 2 -23 -16
11 -7 15 -8 21 -1 17 7 -4 9 -1 5 8 -5 13 -8 14 -20 1 -8 -7 -24 -12 -35 -10
-18 4 -19 2 -7 -13 7 -9 18 -21 23 -25 6 -5 3 -7 -7 -3 -12 4 -23 -3 -33 -22
-16 -27 -16 -27 -10 -2 6 23 5 24 -9 7 -14 -18 -15 -18 -26 0 -10 16 -11 16
-6 1 6 -21 -14 -24 -32 -6 -9 9 -12 9 -12 0 0 -7 5 -12 11 -12 5 0 8 -4 4 -10
-3 -5 -12 -7 -20 -3 -8 3 -15 0 -15 -7 0 -6 -5 -8 -12 -4 -8 5 -7 1 2 -10 16
-21 23 -49 9 -40 -5 3 -6 10 -3 16 5 8 1 9 -10 5 -10 -4 -15 -3 -11 3 3 6 1
10 -4 10 -6 0 -12 -12 -12 -27 -1 -16 -3 -21 -6 -11 -2 9 -11 19 -19 22 -12 4
-12 2 -4 -14 7 -13 7 -26 2 -36 -8 -15 -10 -15 -15 0 -5 11 -3 15 5 10 7 -4 8
-3 4 4 -4 7 -11 12 -17 12 -10 0 -8 -28 4 -47 5 -8 4 -13 -2 -13 -6 0 -11 5
-11 11 0 5 -4 8 -9 4 -5 -3 -13 0 -17 6 -4 7 -3 9 4 5 6 -3 14 -1 18 6 4 7 4
10 -1 6 -4 -4 -15 -2 -23 5 -9 6 -13 7 -10 2 4 -6 2 -17 -3 -25 -8 -13 -10
-13 -19 0 -10 13 -11 13 -9 0 4 -37 -1 -44 -16 -24 -11 14 -14 15 -9 3 3 -10
1 -20 -5 -24 -7 -4 -8 -12 -2 -24 8 -14 6 -18 -7 -18 -9 0 -22 4 -29 9 -7 6
-14 4 -19 -3 -4 -7 -3 -9 4 -5 6 3 13 2 17 -4 6 -9 -8 -15 -29 -11 -11 2 -36
-19 -36 -31 0 -5 5 -6 10 -3 11 7 13 -6 4 -29 -3 -9 -12 -16 -20 -16 -8 0 -11
-7 -8 -17 4 -11 2 -14 -3 -8 -4 6 -15 10 -23 10 -8 -1 -20 2 -26 7 -6 4 -11 2
-11 -7 0 -8 4 -12 9 -9 4 3 8 1 8 -5 0 -6 8 -8 18 -4 9 3 14 3 10 -1 -10 -12
-42 -14 -62 -4 -14 8 -16 7 -11 -2 4 -7 1 -16 -6 -21 -10 -6 -8 -8 8 -6 12 0
19 5 17 9 -3 4 2 5 10 2 23 -9 20 -24 -4 -19 -22 4 -26 -5 -9 -22 8 -8 7 -13
-2 -18 -7 -5 -10 -4 -6 2 9 14 -19 37 -33 28 -6 -4 -9 -13 -6 -21 3 -8 1 -14
-3 -14 -5 0 -12 6 -14 13 -4 9 -6 8 -6 -2 -1 -10 -4 -11 -15 -2 -11 9 -16 9
-22 0 -4 -7 -3 -9 4 -5 17 10 21 -8 6 -29 -8 -10 -14 -13 -14 -6 0 7 -5 9 -11
5 -7 -4 -8 -9 -1 -13 15 -9 12 -61 -4 -61 -7 0 -11 -8 -9 -19 3 -19 2 -19 -33
1 l-37 21 28 -25 c15 -14 27 -29 27 -33 0 -5 -9 0 -20 10 -11 10 -20 14 -20 9
0 -5 -4 -3 -9 5 -6 9 -11 10 -15 2 -4 -6 -2 -11 4 -11 6 0 8 -5 5 -10 -4 -6
-10 -8 -15 -5 -4 3 -7 -3 -5 -12 1 -10 -2 -24 -8 -31 -7 -10 -13 -8 -24 5 -13
16 -13 16 -4 -4 8 -16 8 -23 -2 -26 -9 -3 -9 -8 2 -18 12 -12 13 -12 6 0 -6
10 -4 12 5 6 9 -6 11 -4 5 5 -6 9 -4 11 5 5 9 -5 11 -4 6 3 -5 8 -1 10 10 5
15 -5 15 -7 0 -15 -9 -5 -13 -14 -10 -20 4 -7 2 -8 -4 -4 -7 4 -12 2 -12 -4 0
-7 -6 -5 -15 4 -14 13 -45 13 -45 -1 0 -3 7 -3 15 1 9 3 19 -3 26 -16 9 -16 8
-19 -2 -13 -8 6 -11 4 -7 -7 4 -8 0 -15 -7 -15 -10 0 -11 5 -5 17 6 12 5 17
-5 17 -7 0 -11 -7 -7 -15 3 -10 1 -13 -6 -8 -6 3 -14 1 -18 -5 -5 -8 -3 -9 6
-4 10 6 12 4 7 -9 -5 -11 -3 -15 5 -10 6 4 8 3 4 -4 -3 -6 -2 -13 4 -17 5 -3
10 1 10 9 0 9 5 16 10 16 7 0 7 -7 0 -21 -8 -14 -15 -17 -24 -10 -14 12 -57
11 -49 -2 3 -4 11 -6 19 -3 7 3 16 0 20 -6 4 -7 3 -8 -4 -4 -7 4 -12 2 -12 -3
0 -6 6 -11 14 -11 8 0 18 -4 21 -10 7 -12 -42 6 -65 23 -13 11 -13 10 -1 -5 8
-11 9 -18 3 -18 -6 0 -16 8 -22 18 -8 14 -9 12 -6 -10 3 -17 -3 -36 -14 -51
-11 -13 -17 -27 -14 -30 3 -3 0 -15 -6 -28 -11 -19 -10 -21 3 -16 12 4 14 2
10 -10 -4 -10 -2 -14 5 -9 6 3 13 2 16 -3 7 -10 -20 -9 -30 2 -11 11 -24 8
-24 -4 0 -7 -8 -18 -17 -26 -10 -8 -12 -12 -6 -8 7 3 13 1 13 -5 0 -6 5 -8 12
-4 7 4 8 3 4 -4 -5 -8 -15 -8 -33 -1 -14 5 -28 7 -31 4 -3 -3 0 -5 7 -5 7 0 9
-5 5 -12 -4 -7 -3 -8 4 -4 7 4 12 2 12 -4 0 -6 5 -8 13 -4 8 5 7 2 -2 -9 -10
-13 -17 -14 -26 -7 -10 8 -15 8 -21 -1 -4 -7 -3 -9 3 -6 6 4 14 0 17 -8 4 -12
0 -14 -18 -11 -14 2 -23 -1 -23 -9 0 -8 12 -11 33 -9 19 1 36 -1 39 -6 3 -6
-1 -7 -9 -4 -11 4 -14 0 -11 -16 4 -21 3 -21 -14 -6 -26 24 -37 19 -15 -6 10
-13 15 -20 10 -15 -6 4 -17 -9 -26 -29 -12 -25 -19 -32 -23 -21 -3 9 1 18 9
21 8 3 14 11 14 18 0 9 -3 9 -11 1 -6 -6 -19 -9 -28 -6 -12 4 -13 3 -3 -5 11
-7 11 -10 -2 -15 -9 -4 -16 -12 -15 -19 0 -10 2 -10 6 0 7 17 20 15 20 -3 0
-8 -3 -15 -7 -15 -3 0 -15 -7 -26 -15 -19 -15 -19 -15 1 -9 16 6 18 4 8 -6 -6
-7 -9 -19 -6 -28 4 -10 2 -13 -5 -8 -8 4 -10 2 -6 -8 3 -9 -3 -19 -16 -26 -16
-8 -19 -15 -11 -24 6 -7 8 -16 4 -19 -3 -4 -11 1 -18 10 -10 14 -12 13 -10 -8
1 -13 7 -23 13 -22 5 1 13 -5 16 -13 4 -12 2 -15 -9 -11 -8 4 -17 2 -20 -4 -4
-5 -11 -7 -16 -4 -5 4 -9 2 -9 -4 0 -5 9 -9 19 -8 11 0 17 5 14 11 -3 5 -1 6
6 2 6 -4 9 -12 6 -17 -4 -5 0 -9 7 -9 8 0 6 -5 -5 -11 -9 -6 -14 -15 -11 -21
4 -7 2 -8 -5 -4 -9 6 -9 11 0 22 8 10 8 14 0 14 -6 0 -11 -5 -11 -11 0 -5 -4
-8 -8 -5 -5 3 -9 -1 -9 -9 0 -8 5 -11 10 -8 5 3 7 0 5 -8 -3 -8 -14 -13 -24
-11 -18 2 -18 2 -1 -8 9 -6 17 -16 17 -21 0 -6 -4 -8 -9 -5 -5 3 -8 -2 -7 -11
0 -10 -4 -18 -11 -18 -6 0 -14 -3 -18 -6 -3 -4 8 -5 25 -4 17 1 33 -2 37 -8 3
-5 1 -7 -4 -4 -7 4 -10 -3 -9 -18 0 -16 6 -23 14 -20 7 3 10 0 7 -6 -4 -6 -13
-8 -21 -5 -17 7 -18 -15 -1 -33 10 -11 9 -12 -2 -6 -11 6 -13 4 -8 -8 3 -9 0
-23 -9 -31 -10 -11 -11 -17 -3 -22 9 -5 8 -10 -2 -18 -16 -12 -18 -25 -5 -45
7 -10 6 -12 -4 -6 -9 6 -12 4 -8 -6 6 -17 -20 -52 -42 -57 -23 -5 -33 -19 -19
-27 8 -5 10 -4 5 3 -4 7 -3 12 3 12 13 0 22 -15 14 -24 -4 -4 -8 -15 -10 -26
-2 -17 2 -20 22 -16 14 3 23 1 20 -5 -4 -5 -13 -9 -22 -9 -13 0 -13 -3 -3 -15
19 -23 3 -18 -21 8 l-21 22 13 -25 c7 -14 12 -30 11 -37 -1 -6 2 -14 8 -18 6
-4 8 1 4 12 -4 15 -3 14 7 -2 23 -34 19 -46 -7 -28 -14 9 -27 13 -31 9 -3 -3
-1 -6 5 -6 7 0 11 -6 9 -12 -1 -7 4 -12 11 -11 6 2 12 -2 12 -8 0 -5 5 -7 12
-3 7 4 8 3 4 -5 -4 -6 -12 -9 -17 -6 -5 4 -9 1 -9 -6 0 -7 -7 -4 -16 7 -14 18
-15 18 -4 -4 12 -25 5 -46 -13 -35 -8 5 -8 2 0 -9 7 -8 9 -19 5 -24 -4 -4 0
-4 8 2 8 6 24 14 35 17 18 6 17 5 -3 -9 -12 -9 -22 -22 -22 -29 0 -8 -6 -16
-12 -19 -7 -3 -2 -3 12 0 l25 7 -20 -23 -20 -23 32 17 c23 11 34 13 39 4 4 -7
3 -8 -4 -4 -6 4 -26 -7 -44 -25 l-33 -31 31 21 c23 15 31 17 31 6 0 -8 -3 -12
-7 -10 -9 6 -43 -32 -46 -51 -1 -8 2 -12 7 -8 5 3 10 -1 10 -8 1 -7 2 -20 3
-28 1 -8 -5 -23 -12 -32 -12 -14 -11 -16 5 -14 11 2 18 11 18 24 0 11 3 23 6
26 3 4 5 -6 3 -21 -1 -16 -2 -34 -3 -41 -1 -7 -5 -11 -10 -8 -5 3 -14 -1 -20
-8 -9 -10 -9 -16 -1 -21 6 -4 9 -3 8 2 -2 4 2 8 7 8 6 0 10 -15 9 -32 -1 -22
4 -33 12 -33 8 0 14 5 14 11 0 5 -4 7 -10 4 -6 -4 -7 1 -3 11 8 23 21 -2 18
-36 -1 -14 3 -28 9 -32 7 -5 7 -11 -3 -20 -9 -8 -11 -9 -7 -1 3 6 2 14 -4 18
-6 4 -8 10 -5 15 3 4 -2 11 -11 14 -15 6 -15 4 0 -18 9 -14 12 -27 7 -31 -5
-3 -12 0 -14 5 -3 6 -4 5 -3 -2 2 -7 8 -12 13 -11 6 1 10 -11 11 -28 0 -16 -4
-27 -9 -24 -5 4 -9 1 -9 -5 0 -6 8 -9 18 -6 13 4 19 1 19 -9 0 -8 -4 -15 -9
-15 -5 0 -6 -5 -3 -10 4 -6 14 -9 23 -8 9 2 17 -4 17 -12 1 -8 6 -14 13 -13 7
2 9 -4 5 -14 -6 -15 -7 -15 -18 1 -7 9 -18 16 -26 16 -10 -1 -8 -4 4 -11 14
-8 17 -18 12 -47 -3 -20 -4 -34 -2 -31 1 2 9 13 17 23 12 16 12 18 1 11 -10
-5 -12 -4 -7 4 11 17 26 3 19 -17 -6 -15 -5 -16 13 -2 17 14 18 13 7 -1 -7 -9
-9 -20 -5 -25 4 -4 0 -3 -9 4 -21 16 -27 3 -24 -53 4 -63 16 -85 37 -68 10 9
19 6 37 -8 13 -10 19 -19 14 -19 -5 0 -13 4 -19 9 -5 6 -21 -3 -39 -21 -22
-23 -24 -28 -8 -19 29 15 32 14 28 -6 -1 -10 4 -26 13 -35 13 -15 13 -20 1
-35 -12 -14 -12 -16 0 -8 11 6 13 4 8 -8 -3 -9 -3 -16 1 -16 19 3 23 -2 12
-16 -7 -9 -10 -18 -6 -22 3 -3 6 -1 6 6 0 7 5 9 10 6 6 -3 13 1 16 9 3 9 11
16 17 16 7 0 7 -4 -1 -12 -13 -13 -16 -32 -4 -24 4 2 9 -4 9 -15 1 -10 -3 -19
-8 -19 -6 0 -8 4 -4 9 9 15 -15 25 -28 12 -9 -9 -8 -10 7 -5 18 7 18 6 0 -22
-10 -16 -14 -26 -9 -22 12 11 35 -11 28 -28 -3 -8 0 -14 7 -14 6 0 9 4 6 9 -4
5 0 11 6 13 8 3 4 9 -10 17 -12 6 -22 17 -22 23 0 7 4 7 13 -1 8 -6 18 -7 22
-3 5 4 5 2 1 -5 -4 -7 3 -19 17 -28 18 -11 23 -22 19 -40 -2 -14 -9 -22 -14
-19 -5 3 -7 12 -5 18 3 7 1 19 -5 27 -8 11 -9 10 -4 -3 3 -10 2 -18 -3 -18 -4
0 -8 -6 -8 -14 0 -8 5 -14 11 -13 5 1 11 -2 11 -8 3 -29 18 -55 33 -55 14 0
14 2 -2 13 -16 12 -16 13 2 13 12 0 19 -6 17 -16 -1 -8 3 -19 9 -23 7 -6 4 -7
-6 -3 -10 3 -18 1 -18 -5 0 -6 -5 -7 -12 -3 -7 4 -8 3 -4 -4 4 -6 14 -9 24 -6
14 5 14 3 -2 -10 -11 -9 -16 -16 -11 -16 5 0 17 7 27 17 12 10 18 12 18 4 0
-7 5 -9 12 -5 7 4 8 3 4 -5 -4 -6 -11 -9 -16 -6 -9 6 -25 -13 -17 -21 2 -3 16
1 31 7 20 9 29 10 38 1 8 -8 5 -9 -13 -6 -20 5 -21 4 -9 -6 13 -10 13 -11 -2
-6 -19 6 -30 -5 -20 -19 11 -16 47 -41 39 -28 -4 6 -3 14 2 17 5 4 8 -1 7 -11
-2 -9 -11 -20 -22 -24 -18 -7 -18 -8 2 -8 11 -1 25 4 31 10 8 8 13 7 18 -2 5
-7 4 -10 -3 -5 -6 3 -15 -1 -20 -11 -11 -21 -5 -46 9 -37 5 3 9 -2 9 -11 0 -9
-4 -14 -8 -11 -4 2 -9 -5 -9 -17 -2 -20 -1 -20 8 -4 6 9 15 15 20 12 5 -4 7
-11 4 -16 -3 -5 1 -6 9 -3 13 5 14 8 1 20 -7 8 -17 23 -20 34 -4 11 -11 17
-17 14 -7 -5 -8 -2 -3 6 6 10 11 9 22 -5 7 -11 13 -13 13 -6 0 7 5 9 11 5 8
-4 7 -9 -2 -14 -10 -6 -9 -12 4 -24 8 -9 14 -27 13 -41 -2 -13 1 -22 5 -19 5
3 9 0 9 -5 0 -6 9 -20 20 -31 20 -20 28 -46 10 -35 -6 3 -7 -1 -3 -10 4 -12 8
-13 13 -5 6 9 9 9 15 0 4 -6 13 -9 21 -6 8 3 11 0 8 -8 -3 -8 -15 -12 -27 -10
-21 4 -21 4 -2 -5 12 -5 25 -5 33 2 9 7 11 6 6 -7 -3 -9 -10 -16 -15 -16 -5 0
-9 -5 -9 -12 0 -6 12 -1 27 13 15 13 21 16 14 7 -7 -10 -10 -18 -5 -18 4 0 -1
-6 -11 -14 -17 -12 -17 -13 10 -12 15 0 30 -5 33 -12 2 -7 0 -12 -5 -11 -19 3
-33 -2 -33 -12 0 -8 5 -8 15 1 8 7 15 9 15 5 0 -4 6 -2 14 4 11 9 16 9 21 0 6
-8 10 -7 17 2 6 10 7 7 3 -10 -5 -17 -4 -22 5 -16 8 5 11 4 6 -3 -4 -6 -13 -9
-21 -6 -8 4 -12 10 -9 15 3 5 -2 6 -11 2 -13 -5 -14 -7 -3 -14 10 -7 10 -9 1
-9 -7 0 -13 -5 -13 -11 0 -8 5 -7 16 2 15 13 20 10 36 -21 2 -3 16 -12 31 -21
16 -9 28 -19 27 -24 -1 -4 4 -11 10 -15 8 -5 7 -9 -4 -13 -9 -4 -15 -3 -14 1
5 16 -24 52 -40 51 -16 -1 -16 -2 1 -6 9 -2 18 -9 18 -14 1 -5 3 -13 4 -19 1
-5 3 -14 4 -19 0 -5 8 -12 17 -15 8 -3 13 -2 10 2 -3 5 0 9 7 9 7 0 13 -8 13
-17 0 -11 -7 -15 -22 -12 -12 2 -25 -1 -28 -7 -5 -7 1 -10 16 -8 18 2 23 -3
23 -25 1 -15 -3 -24 -7 -21 -5 2 -6 14 -3 26 2 12 2 16 -1 9 -3 -6 -9 -10 -14
-7 -5 3 -3 -8 3 -24 6 -17 15 -28 19 -25 4 3 8 0 8 -5 0 -6 -5 -11 -11 -11 -5
0 -7 -5 -3 -12 12 -19 11 -56 -1 -51 -6 2 -11 19 -10 37 1 18 -4 41 -12 51 -7
11 -13 14 -13 8 0 -7 5 -15 11 -19 8 -4 7 -9 -2 -15 -12 -7 -12 -9 0 -9 11 0
11 -3 0 -17 -8 -9 -9 -14 -2 -10 8 5 11 -6 9 -38 -3 -52 0 -58 24 -45 12 6 17
5 17 -5 0 -8 -4 -12 -8 -10 -11 7 -39 -6 -39 -17 0 -6 6 -5 15 2 11 9 15 9 15
1 0 -7 5 -9 12 -5 10 6 10 4 2 -7 -12 -16 -12 -48 0 -67 4 -7 5 -16 2 -19 -3
-3 3 -20 13 -37 11 -17 21 -35 23 -41 2 -5 6 -9 10 -8 4 2 4 -5 1 -14 -5 -12
-3 -14 8 -8 12 7 12 6 1 -7 -9 -11 -9 -18 -2 -21 7 -4 7 -5 -1 -4 -6 2 -10 6
-9 11 2 9 -19 26 -32 26 -5 0 -8 -5 -8 -11 0 -5 5 -7 11 -3 8 4 9 -1 5 -17 -3
-13 -3 -18 0 -11 3 6 10 10 15 6 5 -3 5 -14 -2 -26 -6 -12 -7 -18 -1 -14 5 3
12 -1 16 -9 3 -9 12 -12 22 -8 13 5 16 2 12 -9 -4 -9 -2 -20 3 -25 5 -5 3 -20
-6 -35 -9 -20 -10 -27 -2 -25 7 1 11 -4 9 -11 -1 -8 2 -11 8 -7 5 3 11 1 11
-4 1 -6 2 -17 3 -23 1 -8 15 -13 39 -12 20 1 37 -3 37 -8 0 -5 -4 -7 -9 -4
-13 9 -21 -19 -9 -35 8 -11 9 -10 4 4 -3 9 -1 17 4 17 6 0 10 -4 10 -8 0 -5 7
-9 15 -9 9 0 14 6 11 14 -4 8 -1 11 5 8 6 -4 8 -13 5 -20 -2 -7 0 -17 6 -23 8
-8 7 -16 -3 -28 -12 -16 -12 -17 1 -9 20 12 70 14 77 2 3 -6 1 -7 -5 -3 -7 4
-12 1 -12 -8 0 -19 11 -20 29 -4 11 11 12 9 7 -9 -9 -27 8 -38 25 -16 12 14
12 16 0 8 -10 -5 -12 -4 -7 3 11 19 25 14 23 -8 -1 -11 -10 -23 -20 -26 -10
-3 -16 -8 -14 -10 7 -8 57 18 52 27 -3 4 0 11 6 15 8 4 9 3 5 -4 -4 -7 -2 -12
3 -12 6 0 11 -5 11 -11 0 -5 -3 -8 -8 -5 -4 2 -16 -2 -27 -10 -16 -12 -17 -14
-2 -14 9 0 17 4 17 8 0 5 15 8 33 8 25 -1 31 -5 29 -19 -3 -19 13 -23 24 -5 5
7 3 8 -6 3 -9 -5 -11 -4 -6 4 4 6 2 20 -6 29 -12 15 -11 16 4 4 13 -10 17 -10
22 0 3 7 3 3 1 -9 -3 -12 0 -25 6 -29 8 -4 9 -3 5 4 -5 8 -1 10 10 5 11 -4 15
-3 11 4 -4 7 0 10 10 8 10 -1 23 1 28 6 14 11 17 -28 4 -55 -10 -20 -10 -21 5
-2 12 14 16 16 16 5 0 -12 2 -12 9 0 7 11 9 11 14 0 4 -10 6 -10 6 -1 1 6 6
12 12 12 5 0 7 -6 3 -12 -6 -10 -5 -10 7 -1 12 10 18 10 29 0 12 -10 12 -9 1
5 -10 13 -10 18 -2 18 7 0 9 5 5 13 -6 9 -4 9 8 -1 14 -11 18 -10 27 5 6 10
11 13 11 7 0 -16 -25 -35 -36 -26 -4 4 -2 -2 6 -13 21 -30 24 -32 17 -13 -9
24 55 49 69 26 5 -8 2 -9 -9 -5 -16 6 -34 -9 -24 -19 12 -12 48 18 43 34 -5
14 -4 14 8 -1 8 -10 18 -18 23 -18 4 -1 10 -3 13 -6 3 -4 0 -4 -5 0 -6 3 -12
-4 -12 -16 -2 -20 -1 -19 15 4 9 14 23 24 31 21 8 -3 11 0 7 6 -3 6 -2 14 4
17 6 4 9 1 8 -5 -2 -7 7 -14 19 -16 17 -3 21 0 17 14 -5 14 -4 15 5 2 10 -15
14 -16 52 -19 13 -1 18 -5 13 -13 -4 -7 -3 -10 1 -5 5 4 19 0 31 -8 17 -11 25
-12 30 -3 4 6 3 8 -4 4 -6 -3 -13 -2 -16 3 -8 13 20 21 31 10 6 -6 10 -5 10 4
0 15 -38 18 -48 3 -9 -11 -31 3 -23 15 3 5 10 7 15 4 5 -4 9 0 9 7 0 10 2 10
9 0 4 -8 12 -14 16 -14 4 0 12 6 16 14 7 10 9 10 9 1 0 -7 5 -13 11 -13 5 0 7
5 3 12 -4 7 -3 8 5 4 9 -6 9 -11 0 -22 -6 -8 -9 -17 -5 -21 3 -3 6 -1 6 5 0 7
5 12 11 12 5 0 8 -4 4 -9 -3 -5 -1 -12 4 -15 5 -3 7 8 6 24 -1 17 2 33 8 37 6
3 7 1 3 -5 -4 -7 -2 -12 4 -12 6 0 8 -4 5 -10 -3 -5 3 -10 15 -10 12 0 19 -4
16 -8 -3 -5 1 -9 8 -9 11 0 12 4 3 18 -6 10 -15 15 -21 12 -5 -3 -6 -1 -2 5 3
5 3 12 -1 15 -5 2 -2 2 6 0 8 -2 11 2 7 12 -3 10 -2 13 4 10 6 -4 9 -14 8 -22
-2 -9 3 -18 11 -21 9 -3 11 0 6 8 -6 9 -3 9 13 1 12 -6 27 -10 34 -9 7 2 12
-5 12 -14 -1 -10 3 -15 8 -12 5 3 7 12 4 19 -7 20 32 26 44 7 5 -10 10 -12 10
-5 0 24 -47 38 -63 18 -5 -6 -7 -4 -4 5 2 8 12 14 22 12 11 -2 14 1 9 9 -4 7
-3 10 4 5 6 -3 13 -2 17 3 3 6 12 8 20 4 8 -3 15 0 15 5 0 6 8 11 18 10 9 0
30 3 45 6 20 5 26 3 22 -5 -6 -8 -2 -8 12 0 14 7 24 7 33 -2 10 -10 11 -9 5 2
-6 11 -4 13 11 8 18 -7 18 -7 0 8 -11 8 -16 15 -10 15 5 0 2 4 -6 10 -8 5 -12
12 -8 15 3 4 16 -3 27 -14 12 -12 21 -16 21 -11 0 19 3 25 18 36 9 7 13 18 9
28 -4 9 -3 15 2 11 5 -3 11 1 14 7 3 7 4 2 3 -12 -1 -14 -5 -31 -9 -37 -4 -6
-2 -15 4 -19 7 -4 9 -3 5 4 -3 6 -2 13 4 17 6 4 7 11 4 17 -5 7 -1 9 9 5 9 -3
19 -1 23 5 4 6 3 8 -4 4 -6 -3 -13 -2 -16 3 -4 5 2 8 11 6 10 -1 24 2 31 8 6
5 12 6 12 2 0 -4 8 -1 17 6 10 8 14 9 10 2 -4 -6 -3 -14 2 -17 5 -4 12 2 14
11 4 17 5 17 6 0 0 -10 7 -17 14 -14 6 2 11 10 9 17 -2 10 0 11 11 2 8 -7 17
-9 20 -5 4 3 7 1 7 -5 0 -11 -13 -16 -32 -13 -5 0 -8 -4 -8 -9 0 -6 7 -10 16
-10 8 0 13 -4 10 -8 -2 -4 6 -8 19 -8 13 0 23 2 23 5 -1 17 3 31 10 29 4 -1
18 4 32 11 21 11 21 9 -5 -12 -16 -14 -27 -29 -22 -33 4 -4 7 -2 7 4 0 7 5 12
11 12 5 0 8 -4 5 -8 -2 -4 5 -9 17 -9 20 -2 21 -1 4 9 -18 9 -18 11 2 25 12 8
19 20 15 26 -3 7 2 3 11 -8 18 -22 24 -23 36 -3 7 10 9 9 9 -5 0 -14 -6 -16
-29 -12 -34 6 -45 -4 -26 -22 10 -10 14 -9 19 4 5 12 9 13 20 4 11 -9 15 -9
19 1 2 7 8 10 12 6 4 -4 2 -16 -6 -25 -12 -16 -12 -17 2 -6 9 7 18 11 21 8 2
-3 5 2 5 10 0 8 -4 15 -9 15 -4 0 -8 8 -8 18 0 11 7 6 22 -16 15 -24 24 -30
31 -23 13 13 30 15 23 3 -3 -5 1 -9 9 -9 8 0 13 5 12 11 -1 5 7 10 18 10 12 0
19 -5 17 -14 -3 -12 0 -11 15 2 10 8 26 14 36 13 9 -2 14 1 11 7 -3 5 0 9 7 7
28 -3 38 1 33 15 -3 8 -1 16 4 20 10 6 10 -24 -1 -40 -3 -6 0 -11 8 -11 8 0
12 4 9 8 -2 4 5 10 16 14 11 4 17 11 14 17 -4 6 -10 5 -16 -3 -8 -12 -9 -12
-6 0 2 8 14 15 25 16 15 1 19 -3 15 -14 -3 -9 -10 -19 -16 -23 -8 -5 -7 -8 1
-8 7 0 17 9 23 20 6 11 15 18 21 14 5 -3 15 -1 22 4 7 5 20 8 30 7 9 -2 17 3
17 11 0 8 4 14 10 14 5 0 7 -6 4 -14 -4 -11 0 -13 15 -9 17 4 19 8 10 19 -10
12 -9 13 5 8 10 -4 15 -12 12 -19 -2 -6 0 -18 5 -26 7 -12 9 -12 9 0 0 11 3
11 18 0 16 -13 16 -13 0 6 -14 18 -15 22 -2 39 8 11 14 14 14 7 0 -7 4 -10 9
-6 5 3 13 0 17 -6 4 -8 3 -9 -4 -5 -17 10 -15 1 4 -14 12 -11 15 -11 12 0 -2
7 3 15 11 18 9 3 11 0 6 -9 -5 -8 2 -5 14 6 19 16 24 17 31 5 6 -10 10 -11 10
-3 0 7 7 10 18 7 16 -5 16 -5 0 6 -20 12 -25 36 -6 24 6 -4 17 1 25 11 7 11
13 14 13 8 0 -7 -5 -15 -10 -18 -13 -8 -3 -25 13 -24 9 0 8 2 -1 6 -16 6 -6
23 14 23 9 0 12 -5 8 -12 -4 -6 -3 -8 4 -4 5 3 12 3 15 -1 5 -10 -1 11 -10 35
-4 11 2 8 16 -8 12 -14 20 -19 16 -12 -3 6 -2 12 4 12 6 0 8 6 5 14 -3 8 -1
17 5 20 6 4 8 14 5 24 -5 14 -3 14 6 -2 8 -11 9 -21 3 -25 -12 -8 -12 -62 0
-54 4 3 6 7 3 10 -3 3 0 15 6 27 7 11 11 24 10 28 -1 5 1 7 6 7 19 -3 25 2 12
11 -9 6 -10 10 -3 10 6 0 15 -4 18 -10 3 -5 14 -10 23 -10 16 1 16 2 -1 14
-17 13 -17 14 1 18 14 4 18 0 17 -15 -2 -22 -30 -41 -47 -31 -7 4 -8 3 -4 -5
4 -7 2 -10 -4 -9 -7 2 -14 -5 -15 -15 -3 -17 -2 -17 14 -3 10 9 21 13 24 9 4
-3 7 -1 7 5 0 6 9 14 20 17 11 3 20 15 20 26 0 21 15 25 26 7 4 -6 3 -8 -2 -5
-6 3 -11 -4 -11 -16 -2 -20 -1 -20 8 -4 6 9 14 15 18 12 5 -2 8 3 7 12 0 10
15 26 39 39 22 12 46 28 53 34 14 12 36 4 26 -11 -3 -5 -10 -7 -15 -4 -5 4 -9
1 -9 -5 0 -6 -5 -8 -12 -4 -7 4 -8 3 -4 -4 5 -8 2 -10 -8 -6 -9 3 -16 1 -16
-6 0 -6 -4 -9 -8 -6 -14 8 -10 -19 4 -31 9 -9 14 -9 18 3 3 9 1 12 -4 9 -6 -3
-10 -2 -10 3 0 17 13 21 31 11 15 -8 17 -6 12 7 -4 11 -2 15 4 11 6 -4 13 -2
15 5 2 6 14 13 27 15 15 2 20 -1 15 -9 -4 -8 -3 -10 2 -5 5 5 9 14 9 20 1 7 6
11 13 10 7 -2 12 2 12 7 0 6 4 10 10 10 5 0 7 -8 3 -17 -3 -10 -2 -15 2 -10 5
4 9 22 10 40 1 17 7 33 13 33 25 3 27 5 12 15 -13 9 -13 10 0 8 26 -4 49 12
44 29 -5 14 -4 14 6 -1 6 -9 16 -14 22 -11 6 4 8 2 4 -4 -9 -15 7 -23 24 -11
9 5 10 9 3 9 -6 0 -11 9 -10 19 0 11 5 17 10 14 11 -7 38 17 31 28 -3 5 0 9 5
9 14 0 14 -13 -1 -28 -9 -9 -9 -12 -1 -12 7 0 15 5 18 10 5 7 11 8 19 1 12
-10 38 0 37 15 0 5 6 9 13 9 8 0 17 3 21 6 5 5 -18 5 -47 0 -5 0 -8 -9 -8 -18
0 -13 -3 -14 -12 -5 -15 15 -20 44 -5 35 7 -4 8 0 4 13 -7 18 -6 18 7 2 19
-25 29 -22 16 5 -10 21 -10 21 4 3 8 -10 22 -16 30 -13 9 4 20 -1 25 -11 8
-13 9 -11 7 13 -1 17 -5 36 -10 43 -5 8 -3 11 6 10 7 -2 12 3 10 11 -3 12 0
12 12 2 12 -10 16 -9 24 5 6 11 11 13 16 5 4 -6 2 -11 -4 -11 -6 0 -9 -4 -5
-9 3 -6 -4 -8 -16 -6 -18 4 -19 2 -8 -11 12 -14 15 -14 32 7 11 14 29 23 41
22 15 -1 16 0 3 3 -10 3 -14 10 -10 17 5 9 3 9 -8 1 -11 -9 -17 -9 -28 3 -12
13 -11 14 6 9 13 -4 26 1 38 14 10 11 27 20 38 20 11 0 17 -3 13 -8 -7 -7 -11
-8 -37 -11 -5 0 -7 -6 -3 -13 5 -7 3 -8 -6 -3 -8 5 -11 4 -6 -3 4 -6 14 -8 23
-5 12 5 14 3 8 -7 -5 -9 -4 -11 4 -6 6 4 9 11 6 16 -3 5 2 13 10 18 21 11 9
43 -13 35 -15 -4 -15 -3 -2 6 9 6 19 6 24 1 4 -4 15 -6 24 -3 11 5 13 3 7 -8
-4 -8 -4 -11 0 -6 12 10 14 47 3 47 -4 0 -8 8 -8 18 0 12 5 10 19 -11 15 -23
19 -25 24 -12 4 9 1 18 -8 21 -28 11 -15 20 27 17 28 -1 38 1 29 7 -8 4 -23 7
-33 5 -10 -2 -16 0 -13 6 4 5 10 7 15 4 10 -6 22 23 15 36 -4 5 2 6 11 2 13
-5 15 -3 9 8 -5 8 4 3 19 -11 22 -20 26 -21 20 -6 -6 15 -4 17 6 11 8 -5 11
-4 6 3 -3 6 -2 13 4 17 5 3 10 14 10 23 -1 12 -6 8 -16 -10 -8 -16 -16 -28
-19 -28 -7 0 1 59 10 67 4 4 5 2 1 -5 -6 -9 -1 -11 18 -8 15 3 24 1 22 -3 -3
-4 0 -13 6 -21 8 -12 9 -11 4 4 -5 14 -2 17 9 12 13 -4 14 -2 5 14 -6 11 -8
20 -4 20 3 0 1 6 -5 13 -8 10 -7 14 4 14 8 0 12 -4 9 -9 -3 -4 -1 -8 5 -8 6 0
8 -8 5 -17 -5 -17 -5 -17 6 -1 6 10 11 21 11 25 0 5 7 18 15 31 12 19 13 26 3
38 -7 8 -8 14 -3 13 22 -4 26 2 10 14 -16 12 -16 13 3 13 11 0 17 -4 15 -8 -6
-10 10 -11 19 -1 4 3 2 12 -4 20 -7 8 -8 13 -1 13 14 0 23 -28 11 -35 -5 -4
-6 -11 -3 -17 5 -8 1 -9 -10 -5 -11 5 -15 3 -10 -5 5 -7 2 -9 -7 -4 -8 4 -6 1
3 -7 10 -8 14 -18 10 -22 -4 -5 -1 -5 6 -1 7 4 10 11 7 16 -3 5 -1 11 5 15 6
4 8 11 5 16 -4 5 -1 9 4 9 12 0 10 27 -2 47 -11 17 1 16 18 -1 8 -7 11 -17 7
-22 -4 -5 1 -2 11 5 18 14 24 26 8 16 -5 -3 -12 -1 -16 5 -3 5 -1 11 4 11 6 1
17 2 24 3 6 1 11 10 9 20 -2 12 1 16 9 10 7 -4 10 -3 5 4 -3 6 -2 13 4 17 9 6
14 -8 11 -28 -1 -5 3 -6 9 -2 7 4 7 12 0 26 -9 15 -7 21 5 25 16 6 11 24 -6
24 -6 0 -7 -4 -4 -10 4 -6 -1 -7 -11 -3 -10 4 -13 8 -7 10 7 3 10 10 7 18 -3
7 -1 16 5 20 7 3 8 0 5 -9 -3 -9 -2 -16 4 -16 18 0 21 29 4 40 -15 9 -15 10 3
8 12 -2 19 2 17 10 -1 8 2 11 7 8 5 -4 14 2 20 11 5 10 19 19 30 19 42 3 46 5
26 16 -19 11 -19 11 0 18 18 6 18 7 -2 12 -17 5 -21 2 -18 -13 2 -11 0 -19 -6
-19 -5 0 -7 10 -5 22 4 27 43 32 65 8 7 -8 6 -3 -3 12 -20 34 -20 44 -2 29 11
-9 16 -9 22 0 4 7 3 9 -4 5 -6 -3 -14 -2 -17 4 -4 6 -16 8 -28 5 -21 -6 -21
-6 -2 6 40 24 55 42 46 53 -6 7 -6 17 -1 26 6 10 10 11 10 3 0 -7 7 -10 16 -6
15 5 15 7 1 15 -18 10 -13 34 8 42 8 3 17 0 21 -6 5 -7 2 -8 -6 -3 -9 6 -11 4
-5 -5 5 -8 4 -11 -3 -6 -6 3 -13 2 -16 -3 -4 -5 2 -8 11 -6 10 2 21 4 24 4 4
1 10 8 13 17 3 8 2 12 -4 9 -6 -3 -10 -2 -10 2 0 8 39 37 52 38 3 0 10 4 15 9
5 5 3 6 -5 2 -9 -5 -15 -1 -19 13 -3 11 -9 18 -14 15 -5 -3 -7 -10 -4 -15 4
-5 1 -9 -4 -9 -14 0 -14 17 -1 25 8 5 7 12 -2 23 -8 9 1 7 19 -7 22 -15 31
-17 27 -7 -3 8 -12 17 -20 20 -8 3 -11 12 -7 22 5 13 3 15 -7 9 -9 -5 -11 -4
-6 4 6 9 11 9 22 0 12 -10 12 -14 2 -20 -7 -5 -8 -9 -3 -9 6 0 17 5 25 10 10
6 11 10 3 10 -7 0 -13 5 -13 11 0 5 5 7 12 3 7 -4 8 -3 4 4 -4 6 5 18 21 27
18 10 20 14 8 10 -25 -6 -55 33 -34 45 7 5 17 6 23 4 6 -2 20 3 30 11 19 14
19 15 0 37 -10 12 -13 18 -6 14 17 -10 15 22 -3 41 -18 17 -11 33 13 32 15 -1
15 -2 -1 -6 -9 -2 -15 -9 -11 -14 3 -5 10 -6 16 -3 6 4 8 3 5 -3 -4 -6 0 -19
9 -29 15 -18 15 -18 6 1 -15 29 -13 37 11 64 12 13 15 20 7 15 -8 -4 -24 -10
-35 -11 -16 -3 -17 -1 -5 7 13 8 13 13 2 31 -8 11 -9 18 -3 15 5 -4 12 -2 16
3 3 6 13 8 23 5 14 -5 15 -4 2 5 -12 8 -10 15 18 42 18 18 30 34 27 38 -3 3
-9 1 -13 -4 -10 -15 -39 -17 -47 -4 -4 6 -3 15 3 21 6 6 12 6 17 -3 5 -8 4
-10 -3 -5 -7 4 -12 2 -12 -4 0 -7 6 -10 13 -8 12 5 19 58 7 58 -3 0 -15 7 -26
15 -16 14 -15 14 14 0 18 -9 30 -20 27 -25 -3 -4 3 -7 12 -6 22 3 24 38 3 43
-12 4 -13 3 -1 -5 7 -5 12 -14 10 -18 -2 -5 -15 2 -28 15 -13 14 -17 22 -8 18
9 -3 18 -1 20 6 3 9 8 9 19 -1 11 -9 18 -10 23 -2 4 6 3 10 -2 9 -20 -3 -27 2
-13 11 12 8 12 10 1 10 -11 0 -9 5 5 22 10 13 12 17 4 11 -12 -9 -17 -7 -27
13 -10 21 -9 23 7 14 16 -9 18 -7 14 16 -3 19 -1 24 8 18 10 -6 9 -3 -1 9 -12
16 -8 22 12 18 5 -1 6 3 2 9 -5 7 -11 8 -19 1 -8 -7 -16 -4 -26 12 -12 20 -12
21 3 9 9 -8 18 -9 21 -3 4 5 -3 13 -15 16 -15 5 -18 10 -10 15 7 4 11 11 10
16 -3 20 2 34 12 34 8 0 7 -6 -2 -17 -7 -10 -9 -15 -5 -11 5 4 16 2 25 -5 14
-11 14 -10 2 6 -7 9 -10 17 -5 17 4 0 3 5 -4 12 -16 16 -15 31 1 23 6 -4 4 0
-7 9 -11 9 -15 20 -10 27 10 17 12 99 2 105 -4 3 -8 0 -8 -7 0 -7 -3 -9 -6 -6
-4 4 -2 12 4 19 6 7 10 17 10 21 0 5 3 11 6 14 3 3 3 -5 1 -17 -2 -12 -1 -19
3 -16 4 4 7 12 7 17 0 5 4 8 10 7 5 -2 9 -7 7 -11 -1 -5 2 -6 8 -2 8 5 8 11 1
19 -6 7 -7 17 -3 22 4 4 0 3 -8 -3 -13 -10 -18 -8 -27 6 -9 15 -8 24 4 41 9
13 12 20 6 17 -6 -4 -13 2 -16 14 -5 17 -3 18 10 7 14 -11 14 -9 -1 20 -9 17
-22 32 -28 32 -6 0 -8 3 -5 7 4 3 18 -3 30 -15 18 -17 24 -19 24 -8 0 8 -4 13
-8 11 -11 -8 -18 22 -7 33 6 6 6 12 -1 16 -6 4 -11 12 -11 18 0 7 4 7 13 -1
10 -8 14 -7 14 4 0 8 -4 12 -9 9 -4 -3 -8 0 -8 7 0 8 -4 8 -13 1 -10 -8 -13
-6 -13 9 0 11 5 18 11 16 5 -3 16 2 24 10 12 13 11 14 -7 9 -11 -4 -23 -2 -27
4 -3 6 -11 7 -17 4 -7 -4 -8 -2 -4 5 6 9 11 9 22 0 10 -9 14 -9 14 0 0 6 -10
16 -22 21 -21 8 -21 9 -3 10 18 1 19 2 3 13 -15 12 -15 14 1 24 16 10 18 8 16
-18 -1 -16 1 -26 6 -23 5 3 7 10 4 15 -4 5 2 9 12 10 16 0 16 1 -2 8 -19 8
-19 8 0 19 18 11 17 12 -7 8 -31 -5 -46 10 -29 27 9 9 11 8 8 -3 -2 -8 -2 -12
0 -7 3 4 9 5 14 2 5 -4 6 1 3 9 -3 9 -12 16 -19 16 -16 0 -23 17 -20 49 2 33
23 39 21 7 0 -13 -4 -22 -8 -19 -5 2 -8 0 -8 -5 0 -5 12 -14 28 -21 22 -9 24
-9 11 1 -10 9 -15 29 -14 64 1 43 -2 51 -15 46 -11 -4 -10 0 4 16 11 12 15 22
10 22 -5 0 -15 -9 -21 -20 -10 -16 -10 -21 2 -27 12 -7 11 -11 -6 -21 -12 -8
-18 -9 -14 -3 3 6 -1 12 -9 12 -29 3 -34 4 -41 11 -4 4 6 5 22 2 22 -4 29 -1
29 13 1 31 9 48 24 56 10 5 7 6 -7 3 -15 -3 -23 1 -24 10 -3 27 -4 32 -11 40
-14 13 -8 27 6 15 11 -9 16 -9 22 0 4 7 3 9 -4 5 -6 -3 -15 2 -21 11 -6 10
-11 14 -12 8 -6 -36 -5 -54 2 -50 4 3 6 -6 4 -20 -1 -14 1 -25 5 -25 5 0 7 -8
5 -17 -2 -10 -4 -22 -4 -28 -1 -5 -5 -4 -10 3 -4 8 -7 27 -5 43 2 19 0 28 -6
24 -6 -4 -9 -1 -8 7 2 7 -4 12 -12 10 -12 -3 -13 -1 -2 9 15 16 16 33 0 23 -7
-4 -8 -3 -4 5 4 6 12 9 17 5 6 -3 7 5 4 23 -4 18 -3 23 2 15 7 -9 12 -7 20 11
9 18 8 24 -2 24 -8 0 -11 -7 -7 -16 3 -9 2 -13 -3 -9 -4 4 -14 3 -20 -2 -9 -8
-12 -4 -12 16 0 18 2 22 8 13 7 -11 9 -10 9 4 0 9 -4 17 -10 17 -5 0 -10 8
-10 18 0 14 -2 15 -10 2 -5 -8 -10 -10 -10 -4 0 5 5 15 12 22 15 15 42 16 33
2 -4 -6 -11 -8 -16 -5 -5 3 -6 -1 -3 -10 6 -14 8 -14 19 2 15 20 11 33 -11 33
-17 0 -19 17 -1 23 6 3 2 4 -10 4 -18 -1 -20 -4 -11 -20 7 -14 7 -17 -1 -13
-6 4 -11 2 -11 -3 0 -6 -4 -11 -8 -11 -5 0 -9 7 -9 15 0 8 5 11 10 8 5 -3 7 0
5 8 -3 8 -14 13 -24 11 -16 -2 -16 -1 -4 7 8 6 15 14 16 18 2 22 17 42 27 36
6 -4 7 -1 2 7 -6 10 -10 10 -19 -2 -10 -14 -15 -14 -36 -1 -24 14 -24 14 -2
10 23 -5 30 7 11 18 -6 4 -8 13 -5 21 3 8 -6 20 -22 28 -15 9 -21 15 -13 16 7
0 11 6 8 14 -4 11 0 13 15 11 11 -3 17 -1 14 3 -7 7 -12 8 -38 11 -6 0 -8 4
-5 7 10 11 -13 45 -25 38 -7 -5 -5 -12 7 -21 13 -9 15 -13 5 -13 -11 0 -11 -3
-2 -12 15 -15 15 -28 1 -28 -5 0 -8 4 -4 9 3 6 -3 14 -12 20 -11 6 -13 11 -5
11 7 0 10 5 7 10 -4 6 -10 8 -14 5 -5 -2 -7 7 -5 20 2 26 -11 34 -19 13 -3 -7
-4 -3 -4 8 1 14 6 20 14 17 7 -3 13 0 13 6 0 6 -3 11 -7 12 -23 2 -46 8 -51
14 -4 3 9 4 28 1 19 -3 29 -3 22 0 -6 3 -10 10 -7 15 4 5 -2 6 -11 2 -15 -5
-14 -1 5 26 22 31 22 32 3 20 -11 -7 -18 -18 -14 -24 3 -5 -2 -3 -12 4 -17 14
-17 15 3 23 12 4 21 10 21 12 0 3 -12 1 -26 -4 -32 -12 -34 -12 -34 1 0 5 3 8
8 5 4 -2 18 2 32 10 14 7 21 13 17 14 -5 0 -18 -5 -29 -11 -18 -10 -20 -9 -14
6 5 15 4 16 -8 5 -13 -10 -15 -7 -11 19 2 18 0 29 -6 25 -5 -3 -7 -9 -4 -14 3
-5 0 -12 -6 -16 -8 -4 -9 -3 -5 4 4 7 2 12 -3 12 -6 0 -11 5 -11 11 0 5 5 7
10 4 6 -3 10 -2 10 4 0 5 6 11 13 14 6 2 3 3 -8 1 -11 -2 -27 2 -35 7 -13 9
-12 10 2 5 10 -3 20 0 24 6 4 7 3 8 -4 4 -7 -4 -12 -2 -12 4 0 6 -6 8 -12 4
-10 -6 -10 -4 0 7 14 16 16 39 2 39 -5 0 -7 -7 -3 -16 5 -14 3 -15 -14 -6 -11
6 -23 8 -27 5 -3 -3 -6 -1 -6 6 0 8 6 11 16 7 8 -3 13 -2 9 3 -3 5 1 12 7 15
7 3 2 3 -11 0 -16 -4 -21 -3 -16 5 4 7 2 18 -5 26 -9 10 -7 16 7 24 10 6 13
11 7 11 -6 0 -14 -3 -18 -7 -13 -14 -47 -13 -52 2 -4 8 -11 12 -17 8 -5 -3 -8
-2 -4 3 3 5 -1 20 -9 34 -7 14 -13 19 -14 13 0 -7 -5 -13 -11 -13 -8 0 -7 5 1
15 7 9 10 19 6 22 -4 4 -12 1 -17 -7 -9 -13 -10 -13 -7 -1 8 29 27 21 48 -19
11 -22 25 -38 30 -35 6 4 7 -1 3 -11 -5 -14 -3 -16 11 -11 10 4 20 7 22 7 2 0
4 5 4 11 0 5 -4 8 -9 4 -5 -3 -12 -1 -16 5 -3 5 -1 10 6 10 7 0 9 3 6 6 -4 4
-13 1 -22 -6 -18 -15 -20 1 -3 18 9 9 9 12 0 12 -7 0 -12 -6 -12 -12 0 -9 -4
-8 -10 2 -13 20 -13 33 0 25 6 -3 10 -2 10 3 0 13 -28 25 -60 26 -17 1 -24 6
-22 17 1 9 -5 16 -13 17 -44 5 -43 5 -32 23 11 18 12 17 24 -4 8 -14 13 -17
13 -7 0 8 7 3 16 -13 12 -23 34 -30 34 -11 0 3 -4 2 -10 -1 -5 -3 -11 0 -12 7
0 7 -2 18 -3 23 -2 6 -3 14 -4 19 0 5 -8 3 -16 -4 -10 -9 -15 -9 -15 -1 0 6
-9 20 -20 31 -11 11 -16 20 -12 20 4 0 8 8 8 19 0 10 -7 18 -16 18 -41 0 -46
3 -30 14 13 9 13 10 0 6 -8 -2 -14 -9 -13 -15 3 -13 -20 -10 -38 5 -8 5 -21
12 -29 15 -10 3 -8 6 8 10 14 4 20 2 15 -4 -4 -7 -1 -8 7 -3 9 5 11 4 6 -3 -5
-8 -2 -10 8 -6 19 7 21 25 4 22 -7 -2 -12 3 -10 10 1 6 -4 11 -10 10 -7 -2
-12 3 -10 10 1 8 -2 11 -7 7 -11 -6 -33 28 -26 39 3 3 2 4 -1 1 -4 -2 -15 0
-26 6 -16 9 -17 13 -6 27 12 15 11 16 -4 3 -15 -11 -18 -11 -19 0 0 8 -7 1
-14 -16 -9 -18 -14 -23 -15 -13 0 9 -6 21 -12 25 -7 4 -19 16 -27 26 -11 14
-11 20 0 34 12 14 12 16 0 8 -11 -6 -13 -4 -8 9 5 11 3 15 -5 10 -8 -5 -9 -1
-4 12 5 14 4 16 -4 8 -9 -9 -9 -17 -1 -33 8 -15 8 -21 1 -21 -8 0 -7 -7 0 -22
10 -21 10 -22 -4 -5 -8 11 -12 26 -9 35 5 14 3 15 -8 5 -7 -7 -20 -13 -28 -12
-10 0 -7 4 7 9 12 5 22 14 22 20 0 7 -6 7 -21 0 -11 -7 -23 -9 -27 -6 -3 3 0
6 6 6 6 0 9 8 6 18 -5 14 -4 15 5 2 8 -11 11 -12 11 -2 0 7 5 10 12 6 6 -4 8
-3 4 4 -3 6 -15 9 -26 7 -11 -2 -21 0 -21 6 -1 5 -2 13 -3 18 -3 20 -13 20
-12 0 1 -16 -6 -23 -24 -25 -18 -3 -21 -2 -10 5 8 5 18 7 22 5 4 -3 5 2 1 11
-3 10 -8 12 -12 6 -7 -11 -35 -10 -38 2 -8 22 -1 28 13 11 8 -10 13 -14 10 -7
-4 6 2 14 11 16 14 4 14 5 -3 6 -12 0 -24 8 -28 16 -3 8 -11 15 -18 15 -9 0
-8 -3 2 -10 13 -8 13 -11 -2 -27 -11 -11 -18 -13 -18 -5 0 7 5 12 11 12 5 0 7
5 4 10 -4 6 -11 7 -17 4 -6 -4 -5 3 2 16 9 17 9 25 0 34 -8 8 -9 6 -4 -8 6
-15 4 -17 -6 -11 -8 5 -11 4 -7 -2 4 -6 -7 -10 -28 -9 -19 0 -35 2 -35 3 0 1
10 7 21 14 17 9 20 8 14 -2 -5 -8 -4 -10 3 -5 20 12 13 28 -8 21 -20 -6 -25 2
-20 35 1 8 -1 12 -5 8 -4 -4 -9 -21 -10 -38 -1 -18 -8 -37 -15 -43 -10 -9 -11
-9 -6 0 13 24 15 53 3 54 -7 1 -21 1 -32 0 l-20 -1 20 9 c11 5 23 7 27 5 4 -3
10 1 14 8 4 7 3 10 -1 5 -5 -4 -17 1 -28 10 -11 10 -17 13 -14 7 4 -7 -1 -15
-10 -19 -10 -3 -19 -1 -21 5 -3 8 -8 8 -18 -1 -11 -9 -16 -5 -24 17 -9 22 -13
25 -20 14 -5 -8 -6 -18 -3 -24 3 -5 1 -6 -5 -2 -6 4 -9 13 -6 21 4 10 0 13
-13 11 -21 -4 -27 30 -7 38 8 3 10 -3 6 -17 -5 -20 -4 -21 13 -7 11 8 16 10
11 3 -5 -9 -2 -11 8 -7 23 9 20 24 -3 19 -15 -3 -18 0 -14 12 5 12 2 15 -11
10 -10 -4 -19 -1 -22 8 -5 12 -8 12 -20 1 -7 -8 -23 -12 -35 -9 -15 4 -17 8
-8 14 8 5 17 3 21 -4 5 -8 8 -7 8 4 0 9 -7 20 -16 23 -8 3 -13 2 -10 -3 3 -5
-10 -11 -29 -13 -19 -2 -32 -2 -30 1 8 7 -17 31 -26 25 -5 -3 -9 1 -9 8 0 9
-3 9 -10 -2 -5 -8 -10 -10 -10 -4 0 18 12 24 29 14 11 -5 23 -5 32 1 12 9 12
10 -1 6 -8 -2 -33 5 -55 16 -22 12 -42 21 -45 22 -3 0 -11 4 -19 9 -10 7 -12
6 -6 -4 6 -10 4 -12 -10 -6 -15 5 -16 4 -5 -9 11 -13 10 -14 -4 -9 -18 7 -22
34 -5 34 5 0 7 4 4 10 -3 5 -20 -5 -37 -23 -18 -17 -29 -24 -26 -16 4 9 1 22
-5 29 -9 10 -9 11 1 6 19 -11 14 1 -13 30 -13 14 -22 32 -18 38 3 6 2 7 -3 3
-5 -5 -9 -14 -9 -19 0 -6 -6 -13 -14 -16 -10 -3 -12 1 -8 14 5 15 3 14 -9 -3
-19 -26 -34 -30 -34 -8 0 8 5 15 12 15 6 0 8 3 4 7 -4 5 -14 -1 -22 -11 -8
-11 -14 -16 -14 -10 0 5 -9 15 -21 22 -19 12 -20 11 -15 -10 3 -13 3 -17 0
-10 -5 10 -9 10 -21 1 -8 -7 -13 -8 -12 -3 4 23 -14 53 -31 51 -10 -1 -16 -5
-14 -9 3 -5 10 -6 15 -3 5 3 6 -1 3 -10 -4 -10 -10 -12 -18 -7 -14 12 -46 11
-46 0 0 -5 -11 -6 -25 -4 -14 3 -25 0 -25 -6 0 -6 -3 -9 -6 -6 -3 4 -1 15 5
25 8 15 6 22 -9 33 -10 8 -16 18 -13 23 3 6 1 7 -6 3 -6 -4 -9 -11 -6 -16 3
-4 -5 -8 -18 -7 -12 0 -31 -4 -41 -8 -16 -7 -18 -5 -13 8 3 9 2 19 -4 22 -5 4
-7 10 -4 15 3 4 -2 13 -9 19 -10 9 -16 9 -21 1 -4 -6 -2 -9 3 -8 6 2 9 -1 9
-7 -1 -5 -10 -11 -20 -12 -12 -2 -16 1 -11 9 6 10 5 10 -8 1 -8 -7 -19 -9 -23
-5 -5 4 -5 2 -1 -5 3 -6 1 -15 -5 -19 -8 -4 -9 -3 -5 5 11 18 -56 10 -72 -9
-8 -8 -11 -9 -7 -2 4 7 1 20 -7 29 -11 14 -11 16 2 8 12 -7 13 -6 3 7 -7 8 -9
19 -5 23 4 5 -6 -1 -23 -12 -16 -11 -38 -23 -48 -26 -11 -4 -15 -12 -11 -18 4
-8 3 -9 -4 -5 -9 5 -9 13 -2 26 15 29 12 32 -10 10 -12 -12 -25 -18 -30 -15
-4 3 -11 -3 -13 -12 -4 -15 -5 -15 -6 -2 -1 13 -10 15 -43 13 -23 -2 -45 -9
-49 -16 -5 -7 -9 -8 -9 -3 0 13 16 37 24 36 3 -1 6 1 6 4 0 3 -3 5 -6 4 -4 0
-11 5 -15 13 -7 10 -9 10 -10 1 -3 -28 -4 -32 -12 -39 -4 -4 -17 2 -30 13 -33
30 -48 37 -41 19z m-13 -19 c4 3 7 3 7 0 0 -3 -8 -11 -18 -16 -14 -7 -18 -6
-18 9 0 13 4 16 12 10 6 -6 14 -7 17 -3z m48 -4 c7 -10 9 -15 4 -10 -4 4 -19
0 -32 -9 l-24 -15 16 25 c20 31 19 31 36 9z m285 -2 c0 -11 -6 -18 -16 -16 -8
1 -18 -3 -22 -9 -6 -8 -8 -8 -8 1 0 8 36 43 45 43 0 0 1 -8 1 -19z m190 -23
c3 -4 -8 -6 -25 -6 -18 1 -33 4 -36 7 -5 9 52 7 61 -1z m-685 -25 c13 -16 12
-17 -3 -4 -10 7 -18 15 -18 17 0 8 8 3 21 -13z m624 7 c3 -5 1 -10 -4 -10 -6
0 -11 5 -11 10 0 6 2 10 4 10 3 0 8 -4 11 -10z m45 -15 c5 3 11 1 14 -4 4 -5
-2 -8 -11 -7 -9 2 -18 8 -19 15 -1 6 0 7 3 1 2 -5 9 -8 13 -5z m118 -3 c4 -14
-36 -11 -42 3 -2 7 5 11 17 10 11 -1 23 -7 25 -13z m-62 -1 c-4 -5 -1 -11 6
-13 8 -3 6 -6 -4 -10 -11 -5 -15 -2 -13 10 5 23 4 22 11 22 3 0 3 -4 0 -9z
m-879 -17 c-3 -3 -12 -4 -19 -1 -8 3 -5 6 6 6 11 1 17 -2 13 -5z m1043 -26 c0
-4 -4 -8 -9 -8 -6 0 -12 4 -15 8 -3 5 1 9 9 9 8 0 15 -4 15 -9z m37 -3 c0 -8
-4 -12 -9 -9 -5 3 -6 10 -3 15 9 13 12 11 12 -6z m190 -37 c-17 -11 -27 -10
-27 3 0 5 5 7 12 3 7 -4 8 -3 4 4 -4 6 -13 9 -21 6 -8 -4 -13 -9 -10 -13 2 -4
-2 -8 -10 -8 -8 0 -15 4 -15 9 0 4 5 8 11 8 5 0 7 4 4 10 -3 5 0 7 8 4 8 -3
18 0 22 6 5 8 11 5 20 -7 10 -13 10 -20 2 -25z m-1577 7 c-7 -8 -18 -15 -24
-15 -6 0 -2 7 8 15 25 19 32 19 16 0z m-40 -19 c0 -2 -8 -10 -17 -17 -16 -13
-17 -12 -4 4 13 16 21 21 21 13z m1629 -19 c0 -9 -2 -9 -5 0 -3 7 -13 9 -22 6
-14 -4 -14 -3 -2 5 16 12 30 7 29 -11z m-1774 -7 c3 -5 1 -10 -4 -10 -6 0 -11
5 -11 10 0 6 2 10 4 10 3 0 8 -4 11 -10z m30 0 c3 -5 1 -10 -4 -10 -6 0 -11 5
-11 10 0 6 2 10 4 10 3 0 8 -4 11 -10z m55 6 c0 -2 -7 -7 -16 -10 -8 -3 -12
-2 -9 4 6 10 25 14 25 6z m1834 -13 c12 -7 15 -13 7 -17 -6 -4 -11 -2 -11 3 0
6 -3 10 -7 10 -18 -3 -33 2 -33 10 0 11 19 9 44 -6z m-10 -42 c-2 -3 -12 3
-22 13 -16 17 -16 18 5 5 12 -7 20 -15 17 -18z m-2038 -38 c-3 -4 -6 -1 -6 5
0 7 -8 12 -17 12 -15 0 -16 -2 -3 -10 9 -6 10 -10 3 -10 -20 0 -24 18 -6 29
13 7 20 6 26 -5 5 -9 6 -18 3 -21z m104 31 c0 -8 -19 -13 -24 -6 -3 5 1 9 9 9
8 0 15 -2 15 -3z m-152 -35 c11 -17 11 -20 0 -13 -19 12 -37 13 -44 3 -3 -5
-11 -9 -17 -9 -7 0 -4 5 6 11 9 5 17 16 17 24 0 19 22 10 38 -16z m2152 21 c0
-5 -2 -10 -4 -10 -3 0 -8 5 -11 10 -3 6 -1 10 4 10 6 0 11 -4 11 -10z m60 -45
c14 -19 14 -19 -2 -6 -10 7 -18 18 -18 24 0 6 1 8 3 6 1 -2 9 -13 17 -24z m51
-12 c13 -16 12 -17 -3 -4 -10 7 -18 15 -18 17 0 8 8 3 21 -13z m-2394 -28 c0
-10 -5 -11 -19 -4 -10 5 -18 11 -18 12 0 2 8 3 18 4 10 1 19 -5 19 -12z m-125
-72 c-10 -4 -9 -10 5 -27 l18 -21 -22 19 c-23 19 -22 37 0 35 8 0 8 -2 -1 -6z
m32 -9 c3 -8 2 -12 -4 -9 -6 3 -10 10 -10 16 0 14 7 11 14 -7z m2669 1 c-3 -9
-8 -14 -10 -11 -3 3 -2 9 2 15 9 16 15 13 8 -4z m-2718 -34 c-2 -2 -11 3 -19
12 -8 8 -12 17 -9 21 3 3 12 -2 19 -12 7 -9 11 -19 9 -21z m2805 -5 c0 -3 -4
-8 -10 -11 -5 -3 -10 -1 -10 4 0 6 5 11 10 11 6 0 10 -2 10 -4z m-2883 -51 c0
-8 -4 -12 -9 -9 -5 3 -6 10 -3 15 9 13 12 11 12 -6z m-84 -41 c-12 -8 -21 -9
-28 -3 -12 12 12 29 32 22 11 -4 10 -8 -4 -19z m3107 6 c0 -5 -5 -10 -11 -10
-5 0 -7 5 -4 10 3 6 8 10 11 10 2 0 4 -4 4 -10z m-3143 -41 c-2 -10 -7 -22
-12 -26 -4 -5 -5 -3 -2 3 4 7 0 17 -8 24 -18 15 -10 31 10 24 8 -3 13 -14 12
-25z m-37 -39 c0 -5 -2 -10 -4 -10 -3 0 -8 5 -11 10 -3 6 -1 10 4 10 6 0 11
-4 11 -10z m-24 -11 c3 -5 -3 -6 -12 -2 -13 5 -15 3 -9 -8 7 -11 6 -12 -7 -2
-8 7 -18 10 -21 6 -4 -3 -7 -2 -7 4 0 13 48 14 56 2z m-25 -36 c13 -16 12 -17
-3 -4 -10 7 -18 15 -18 17 0 8 8 3 21 -13z m3424 -23 c3 0 16 -12 30 -28 l23
-28 -23 0 c-13 0 -23 5 -22 11 1 5 -4 9 -10 8 -7 -2 -13 2 -13 7 0 6 5 10 10
10 19 0 10 16 -10 17 -11 1 -18 -2 -16 -6 3 -4 -1 -8 -9 -8 -13 0 -12 4 2 19
9 11 11 18 5 18 -7 0 -12 6 -12 13 1 6 9 2 20 -11 10 -13 22 -23 25 -22z
m-3587 -115 c-3 -3 -9 2 -12 12 -6 14 -5 15 5 6 7 -7 10 -15 7 -18z m3647 5
c3 -5 1 -10 -4 -10 -6 0 -11 5 -11 10 0 6 2 10 4 10 3 0 8 -4 11 -10z m55 -10
c-8 -5 -10 -10 -4 -10 5 0 15 5 22 12 9 9 12 8 12 -5 0 -11 -8 -17 -24 -17
-28 0 -43 16 -24 23 22 9 34 7 18 -3z m-3743 -30 c-6 -11 -18 -20 -25 -20 -13
0 -10 11 11 37 15 20 28 4 14 -17z m14 -23 c-10 -9 -11 -8 -5 6 3 10 9 15 12
12 3 -3 0 -11 -7 -18z m3779 3 c0 -4 -7 -13 -15 -20 -14 -12 -20 -7 -16 14 1
5 -6 6 -16 2 -17 -6 -17 -5 0 8 18 14 47 12 47 -4z m-3913 -97 c-4 -3 1 -12
11 -20 13 -10 14 -13 2 -11 -8 2 -18 8 -22 13 -5 6 -8 5 -8 -2 0 -7 -5 -13
-12 -13 -6 0 -3 9 7 20 10 11 20 20 23 20 3 0 2 -3 -1 -7z m3948 -2 c3 -5 2
-12 -3 -15 -5 -3 -9 1 -9 9 0 17 3 19 12 6z m-3960 -50 c-9 -8 -36 -10 -30 -2
2 4 11 8 20 8 8 0 13 -3 10 -6z m4095 -81 c8 -5 11 -12 8 -16 -4 -3 -14 1 -23
10 -18 17 -9 21 15 6z m-9 -38 c-7 -2 -18 1 -23 6 -8 8 -4 9 13 5 13 -4 18 -8
10 -11z m59 -97 c0 -5 -5 -3 -10 5 -5 8 -10 20 -10 25 0 6 5 3 10 -5 5 -8 10
-19 10 -25z m-4322 12 c-1 -2 3 -11 11 -20 11 -14 11 -17 0 -18 -8 -1 -17 -1
-21 0 -5 0 -8 -3 -8 -9 0 -5 6 -10 13 -11 8 0 8 -2 1 -5 -7 -3 -11 -13 -9 -22
1 -9 0 -11 -2 -4 -3 7 -10 9 -16 5 -7 -4 -6 1 2 10 10 13 10 17 1 17 -10 0
-10 3 0 15 7 8 16 12 21 9 6 -3 8 6 5 21 -3 15 -3 25 0 22 3 -3 4 -7 2 -10z
m52 -7 c12 -7 10 -9 -8 -7 -12 0 -22 5 -22 9 0 11 12 10 30 -2z m4351 -117
c13 -16 12 -17 -3 -4 -17 13 -22 21 -14 21 2 0 10 -8 17 -17z m-4511 -223 c-8
-5 -19 -10 -25 -10 -5 0 -3 5 5 10 8 5 20 10 25 10 6 0 3 -5 -5 -10z m4646
-18 c0 -10 -5 -19 -12 -19 -6 0 -9 9 -6 19 2 10 7 18 11 18 4 0 7 -8 7 -18z
m-4701 -32 c-3 -5 -14 -10 -23 -9 -14 0 -13 2 3 9 27 11 27 11 20 0z m-16 -37
c-6 -7 -15 -10 -20 -7 -13 8 -3 21 15 21 12 0 13 -4 5 -14z m4733 2 c2 3 5 -2
5 -10 0 -8 -4 -15 -9 -15 -4 0 -8 5 -8 11 0 5 -4 8 -8 5 -5 -3 -9 1 -9 9 0 10
4 12 12 5 7 -5 14 -8 17 -5z m-4730 -34 c-8 -5 -14 -12 -15 -17 -1 -5 -5 -8
-9 -7 -4 2 -4 -5 -1 -14 5 -12 2 -15 -10 -10 -15 6 -16 3 -7 -14 6 -11 15 -17
20 -14 5 3 11 1 14 -4 7 -10 -20 -9 -30 2 -15 15 -26 6 -13 -10 13 -16 12 -17
-4 -4 -12 9 -14 17 -7 26 6 8 5 16 -3 25 -10 10 -8 12 10 7 15 -3 20 -1 16 9
-3 8 0 14 7 14 6 0 9 4 6 8 -2 4 5 9 17 9 15 2 18 0 9 -6z m-22 -115 c0 -3 -4
-8 -10 -11 -5 -3 -10 -1 -10 4 0 6 5 11 10 11 6 0 10 -2 10 -4z m-46 -88 c-3
-4 -11 -5 -18 -2 -9 4 -13 -2 -11 -20 2 -14 -3 -27 -11 -30 -12 -4 -12 -2 -4
14 6 10 10 23 9 27 -3 17 2 22 20 20 11 0 18 -5 15 -9z m-39 -278 c3 -6 -1 -7
-9 -4 -18 7 -21 14 -7 14 6 0 13 -4 16 -10z m-35 -80 c0 -5 -2 -10 -4 -10 -3
0 -8 5 -11 10 -3 6 -1 10 4 10 6 0 11 -4 11 -10z m-10 -26 c0 -2 -9 0 -20 6
-11 6 -20 13 -20 16 0 2 9 0 20 -6 11 -6 20 -13 20 -16z m-10 -24 c0 -4 -6
-10 -14 -13 -12 -5 -14 2 -7 31 2 7 21 -10 21 -18z m5011 -17 c13 -16 12 -17
-3 -4 -17 13 -22 21 -14 21 2 0 10 -8 17 -17z m49 -57 c0 -2 -7 -7 -16 -10 -8
-3 -12 -2 -9 4 6 10 25 14 25 6z m-5058 -117 c2 -2 1 -3 -1 -1 -3 1 -15 -5
-28 -13 -23 -15 -23 -15 -12 3 11 18 34 24 41 11z m-17 -59 c3 -5 1 -10 -4
-10 -6 0 -11 5 -11 10 0 6 2 10 4 10 3 0 8 -4 11 -10z m5055 -100 c0 -5 -5
-10 -11 -10 -5 0 -7 5 -4 10 3 6 8 10 11 10 2 0 4 -4 4 -10z m-5062 -19 c-7
-11 -16 -17 -22 -14 -5 3 -1 12 9 20 25 18 27 17 13 -6z m5054 -37 c-9 -16
-10 -14 -9 8 1 15 6 23 11 18 4 -4 4 -16 -2 -26z m-5035 13 c0 -8 -6 -14 -13
-14 -7 0 -10 6 -7 14 3 7 8 13 12 13 4 0 8 -6 8 -13z m5041 -62 c-3 -3 -9 2
-12 12 -6 14 -5 15 5 6 7 -7 10 -15 7 -18z m-5038 -54 c0 -6 -4 -12 -8 -15 -5
-3 -9 1 -9 9 0 8 4 15 9 15 4 0 8 -4 8 -9z m5044 -110 c4 -5 -3 -7 -14 -4 -23
6 -26 13 -6 13 8 0 17 -4 20 -9z m-5009 -48 c-5 -10 -7 -21 -7 -25 1 -5 -2 -8
-8 -8 -9 0 -12 8 -9 28 1 4 5 6 10 5 5 -2 9 5 9 14 0 9 3 14 6 10 4 -3 3 -14
-1 -24z m4976 -6 c-10 -9 -11 -8 -5 6 3 10 9 15 12 12 3 -3 0 -11 -7 -18z
m-4956 -17 c3 -5 1 -10 -4 -10 -6 0 -11 5 -11 10 0 6 2 10 4 10 3 0 8 -4 11
-10z m4982 -5 c0 -8 -3 -13 -5 -10 -3 3 -11 0 -19 -6 -16 -14 -17 -3 0 16 16
19 24 19 24 0z m-4984 -31 c-7 -20 -32 -25 -28 -6 4 21 2 19 19 19 8 0 12 -6
9 -13z m4937 -58 c0 -2 -7 -7 -16 -10 -8 -3 -12 -2 -9 4 6 10 25 14 25 6z
m-30 -77 c-7 -11 -14 -18 -17 -15 -3 3 0 12 7 21 18 21 23 19 10 -6z m50 18
c0 -2 -15 -16 -32 -33 -27 -24 -29 -25 -13 -4 24 30 45 47 45 37z m-4937 -50
c7 4 6 -1 -2 -10 -12 -15 -9 -21 12 -18 13 2 7 -11 -10 -25 -17 -13 -17 -13 2
-14 15 0 16 -3 7 -12 -17 -17 -24 -4 -27 49 -1 26 0 42 2 35 3 -6 10 -9 16 -5z
m60 -151 c8 8 3 -18 -6 -33 -4 -6 -3 -14 2 -17 5 -4 12 0 15 6 3 7 3 3 0 -9
-3 -15 -1 -23 8 -23 10 0 9 -3 -2 -10 -12 -8 -12 -10 5 -10 16 0 17 -2 6 -9
-16 -10 -44 16 -34 32 2 4 -1 15 -8 23 -7 9 -14 30 -15 47 -2 28 -1 30 10 15
7 -10 16 -15 19 -12z m4762 6 c-3 -3 -11 0 -18 7 -9 10 -8 11 6 5 10 -3 15 -9
12 -12z m49 -41 c3 -5 -1 -14 -9 -21 -13 -10 -15 -9 -15 9 0 21 14 28 24 12z
m-64 -21 c0 -5 -2 -10 -4 -10 -3 0 -8 5 -11 10 -3 6 -1 10 4 10 6 0 11 -4 11
-10z m8 -62 c7 -9 6 -17 -3 -25 -8 -7 -16 -9 -20 -4 -3 5 1 12 7 14 10 4 9 8
-2 16 -8 6 -10 11 -4 11 6 0 16 -6 22 -12z m-91 -158 c-2 -23 -10 -17 -12 10
-1 10 2 17 6 14 4 -2 7 -13 6 -24z m58 10 c-9 -15 -45 -32 -45 -22 0 5 10 14
23 20 29 14 29 14 22 2z m-4604 -37 c10 -11 10 -14 2 -9 -7 4 -13 3 -13 -3 0
-6 -7 -8 -15 -5 -12 5 -13 10 -4 20 14 17 14 17 30 -3z m69 -165 c0 -6 -6 -5
-15 2 -8 7 -15 14 -15 16 0 2 7 1 15 -2 8 -4 15 -11 15 -16z m4405 -8 c3 -6
-1 -7 -9 -4 -18 7 -21 14 -7 14 6 0 13 -4 16 -10z m-4291 -146 c3 -8 2 -12 -4
-9 -6 3 -10 10 -10 16 0 14 7 11 14 -7z m43 -51 c0 -7 -4 -13 -8 -13 -4 0 -9
6 -12 13 -3 8 0 14 7 14 7 0 13 -6 13 -14z m4110 -10 c-9 -2 -15 -9 -12 -14 4
-5 1 -9 -4 -9 -12 0 -14 13 -4 23 3 4 13 6 22 6 13 -1 12 -2 -2 -6z m-4095
-27 c7 4 8 2 4 -5 -9 -13 -26 -5 -25 12 0 9 2 8 6 -1 2 -6 10 -9 15 -6z m4067
-14 c8 -15 6 -18 -14 -18 -20 0 -22 3 -14 18 5 10 12 18 14 18 2 0 9 -8 14
-18z m-4002 -57 c0 -8 -6 -16 -14 -19 -11 -4 -11 -1 -3 14 13 24 17 25 17 5z
m33 -25 c0 -5 -2 -10 -4 -10 -3 0 -8 5 -11 10 -3 6 -1 10 4 10 6 0 11 -4 11
-10z m3848 -64 c-10 -7 -15 -16 -11 -20 4 -4 -1 -4 -11 0 -17 6 -16 8 5 20 31
17 39 17 17 0z m-3801 -32 c-9 -9 -28 6 -21 18 4 6 10 6 17 -1 6 -6 8 -13 4
-17z m43 12 c0 -2 -8 -10 -17 -17 -16 -13 -17 -12 -4 4 13 16 21 21 21 13z
m20 -32 c0 -8 -19 -13 -24 -6 -3 5 1 9 9 9 8 0 15 -2 15 -3z m3684 -11 c4 -11
1 -11 -14 -3 -24 13 -25 17 -5 17 8 0 16 -6 19 -14z m-195 -182 c7 -5 9 -11 5
-14 -5 -3 -15 1 -22 9 -14 16 -5 18 17 5z m-186 -155 c6 -15 -17 -16 -30 -1
-4 4 -2 5 5 1 6 -4 12 -2 12 3 0 15 7 14 13 -3z m-3289 -62 c3 -8 2 -12 -4 -9
-6 3 -10 10 -10 16 0 14 7 11 14 -7z m2977 -134 c-14 -8 -29 -13 -33 -12 -5 1
-8 -4 -8 -10 0 -9 -3 -8 -9 2 -13 19 -3 34 14 20 8 -7 15 -7 19 -1 3 5 0 12
-6 15 -7 3 -2 3 10 0 22 -5 23 -4 12 18 -13 23 -13 23 7 3 20 -20 20 -20 -6
-35z m-111 -16 c0 -8 -19 -13 -24 -6 -3 5 1 9 9 9 8 0 15 -2 15 -3z m-2820
-38 c0 -3 -4 -8 -10 -11 -5 -3 -10 -1 -10 4 0 6 5 11 10 11 6 0 10 -2 10 -4z
m20 -20 c0 -2 -7 -7 -16 -10 -8 -3 -12 -2 -9 4 6 10 25 14 25 6z m35 -86 c10
8 15 8 21 -1 4 -7 3 -9 -4 -5 -6 3 -13 2 -17 -4 -3 -5 5 -14 19 -20 30 -11 35
-24 6 -15 -15 5 -18 3 -14 -9 3 -9 12 -12 22 -9 9 4 14 3 11 -1 -9 -10 -50
-16 -44 -7 2 5 -4 19 -14 32 -10 13 -16 31 -13 39 4 11 6 12 10 2 3 -9 7 -10
17 -2z m2262 -20 c1 -11 -2 -20 -7 -20 -6 0 -7 17 -1 38 3 8 7 -1 8 -18z m40
5 c0 -8 -4 -12 -9 -9 -5 3 -6 10 -3 15 9 13 12 11 12 -6z m-82 -5 c3 -5 1 -10
-4 -10 -6 0 -11 5 -11 10 0 6 2 10 4 10 3 0 8 -4 11 -10z m169 -6 c3 -9 2 -12
-5 -9 -5 4 -16 2 -24 -5 -10 -8 -15 -8 -20 1 -6 8 -10 7 -17 -2 -8 -11 -9 -11
-5 1 2 9 13 14 25 12 12 -2 22 2 22 7 0 17 17 13 24 -5z m-914 -59 c0 -2 -9
-3 -19 -2 -11 0 -18 5 -15 9 4 6 34 0 34 -7z m466 -7 c-9 -5 -16 -14 -16 -20
0 -7 5 -6 15 2 8 7 15 9 15 4 0 -5 5 -1 11 8 10 17 39 14 39 -4 0 -7 -5 -6
-14 1 -11 9 -15 8 -20 -5 -4 -9 -9 -14 -13 -11 -3 4 -12 2 -19 -4 -11 -9 -15
-7 -20 7 -4 11 -9 22 -11 26 -2 4 4 5 13 1 12 -4 15 -3 10 5 -5 8 -2 10 10 5
15 -5 15 -7 0 -15z m-324 -40 c-6 -6 -12 -6 -16 1 -4 6 -2 11 3 11 6 0 12 8
12 18 1 15 2 15 6 -2 3 -10 0 -23 -5 -28z m251 30 c11 10 17 9 28 -5 8 -9 9
-14 2 -10 -6 4 -14 3 -18 -2 -3 -6 -12 -8 -19 -5 -8 3 -17 0 -21 -6 -6 -9 -9
-9 -15 0 -5 7 -3 19 3 25 8 9 14 9 19 2 4 -7 11 -7 21 1z m-1733 -43 c7 -9 8
-15 2 -15 -5 0 -12 7 -16 15 -3 8 -4 15 -2 15 2 0 9 -7 16 -15z m1246 3 c-9
-5 -13 -14 -9 -21 4 -7 0 -6 -10 2 -24 19 -21 29 10 29 21 0 23 -2 9 -10z
m-58 -41 c8 -10 6 -13 -7 -13 -11 0 -17 6 -14 13 3 7 6 13 8 13 1 0 7 -6 13
-13z m-1013 -17 c3 -6 -1 -7 -9 -4 -18 7 -21 14 -7 14 6 0 13 -4 16 -10z m895
6 c0 -2 -7 -7 -16 -10 -8 -3 -12 -2 -9 4 6 10 25 14 25 6z m-100 -68 c0 -5 -9
-4 -20 2 -11 6 -20 12 -20 14 0 2 9 2 20 -1 11 -3 20 -9 20 -15z m-620 -21 c0
-14 -26 0 -27 15 -2 16 0 16 13 4 8 -8 14 -16 14 -19z m30 23 c11 -7 11 -10 2
-10 -7 0 -10 -5 -6 -12 4 -7 3 -8 -5 -4 -6 4 -9 11 -6 16 3 4 -1 11 -7 13 -7
3 -8 6 -3 6 6 0 17 -4 25 -9z m190 0 c0 -5 -5 -10 -11 -10 -5 0 -7 5 -4 10 3
6 8 10 11 10 2 0 4 -4 4 -10z"/>
<path d="M4610 4786 c0 -2 8 -10 18 -17 15 -13 16 -12 3 4 -13 16 -21 21 -21
13z"/>
<path d="M4743 4635 c0 -8 4 -12 9 -9 5 3 6 10 3 15 -9 13 -12 11 -12 -6z"/>
<path d="M443 2145 c0 -8 4 -12 9 -9 5 3 6 10 3 15 -9 13 -12 11 -12 -6z"/>
<path d="M1120 526 c0 -2 8 -10 18 -17 15 -13 16 -12 3 4 -13 16 -21 21 -21
13z"/>
<path d="M3127 5520 c-20 -24 -23 -37 -4 -21 8 6 16 9 18 6 3 -2 5 5 5 15 0
11 -1 20 -1 20 0 0 -8 -9 -18 -20z"/>
<path d="M2910 5523 c0 -6 -9 -10 -20 -8 -11 2 -20 0 -20 -4 0 -7 47 -8 93 -2
16 2 6 17 -13 18 -11 1 -20 -4 -20 -10 0 -7 -4 -6 -10 3 -6 9 -10 10 -10 3z"/>
<path d="M3090 5510 c-6 -11 -8 -20 -6 -20 3 0 10 9 16 20 6 11 8 20 6 20 -3
0 -10 -9 -16 -20z"/>
<path d="M3165 5520 c-3 -5 -1 -10 4 -10 6 0 11 5 11 10 0 6 -2 10 -4 10 -3 0
-8 -4 -11 -10z"/>
<path d="M3264 5479 c0 -9 5 -15 11 -12 7 2 12 10 12 17 0 7 -5 13 -12 13 -6
0 -11 -8 -11 -18z"/>
<path d="M3367 5459 c6 -6 9 -17 6 -24 -3 -9 2 -12 13 -11 10 2 20 9 22 17 3
11 1 11 -7 -1 -9 -13 -11 -13 -11 1 0 9 -8 20 -17 24 -14 5 -15 3 -6 -6z"/>
<path d="M2126 5442 c-3 -5 1 -9 9 -9 8 0 12 4 9 9 -3 4 -7 8 -9 8 -2 0 -6 -4
-9 -8z"/>
<path d="M2290 5434 c0 -8 5 -12 10 -9 6 4 8 11 5 16 -9 14 -15 11 -15 -7z"/>
<path d="M3420 5439 c0 -5 5 -7 10 -4 6 3 10 8 10 11 0 2 -4 4 -10 4 -5 0 -10
-5 -10 -11z"/>
<path d="M2079 5417 c6 -8 7 -18 3 -22 -4 -5 -1 -5 6 -1 10 6 10 11 1 22 -6 8
-14 14 -16 14 -3 0 0 -6 6 -13z"/>
<path d="M2016 5394 c-3 -8 3 -10 17 -6 l22 5 -20 -20 c-16 -16 -22 -18 -28
-6 -9 15 -27 8 -27 -10 0 -8 3 -8 9 1 6 11 10 10 15 -4 6 -15 10 -14 36 11 17
16 30 34 30 39 0 6 -5 4 -10 -4 -5 -8 -10 -10 -10 -4 0 15 -28 14 -34 -2z"/>
<path d="M1890 5360 c0 -5 5 -10 11 -10 5 0 7 5 4 10 -3 6 -8 10 -11 10 -2 0
-4 -4 -4 -10z"/>
<path d="M3719 5353 c-13 -16 -12 -17 4 -4 16 13 21 21 13 21 -2 0 -10 -8 -17
-17z"/>
<path d="M3806 5362 c-3 -5 1 -9 9 -9 8 0 12 4 9 9 -3 4 -7 8 -9 8 -2 0 -6 -4
-9 -8z"/>
<path d="M1796 5322 c-2 -4 -1 -14 4 -22 4 -7 6 -20 3 -29 -5 -12 -3 -13 6 -5
10 9 10 17 2 32 -6 10 -7 22 -4 26 3 3 4 6 0 6 -3 0 -8 -4 -11 -8z"/>
<path d="M3870 5326 c0 -2 7 -7 16 -10 8 -3 12 -2 9 4 -6 10 -25 14 -25 6z"/>
<path d="M1755 5300 c3 -5 8 -10 11 -10 2 0 4 5 4 10 0 6 -5 10 -11 10 -5 0
-7 -4 -4 -10z"/>
<path d="M3930 5279 c0 -6 -7 -8 -16 -5 -8 3 -12 2 -9 -3 9 -15 44 -9 38 6 -6
16 -13 17 -13 2z"/>
<path d="M4098 5184 c-3 -5 -2 -18 2 -28 3 -11 9 -15 12 -10 3 5 2 18 -2 28
-3 11 -9 15 -12 10z"/>
<path d="M1493 5165 c0 -8 4 -12 9 -9 5 3 6 10 3 15 -9 13 -12 11 -12 -6z"/>
<path d="M4130 5160 c13 -23 20 -26 20 -6 0 8 -7 16 -15 20 -13 4 -14 2 -5
-14z"/>
<path d="M1526 5159 c3 -5 0 -9 -5 -9 -6 0 -11 -5 -11 -11 0 -8 6 -7 17 2 9 8
18 13 20 12 1 -2 4 0 6 4 1 3 -6 7 -16 9 -9 1 -15 -2 -11 -7z"/>
<path d="M4188 5158 c5 -5 16 -8 23 -6 8 3 3 7 -10 11 -17 4 -21 3 -13 -5z"/>
<path d="M4245 5120 c-3 -5 -1 -10 4 -10 6 0 11 5 11 10 0 6 -2 10 -4 10 -3 0
-8 -4 -11 -10z"/>
<path d="M1357 5079 c7 -7 15 -10 18 -7 3 3 -2 9 -12 12 -14 6 -15 5 -6 -5z"/>
<path d="M4511 4907 c-8 -11 -5 -19 13 -36 l23 -22 6 21 c3 12 3 19 0 16 -9
-8 -34 15 -27 25 8 14 -2 11 -15 -4z m20 -24 c13 -16 12 -17 -3 -4 -17 13 -22
21 -14 21 2 0 10 -8 17 -17z"/>
<path d="M1106 4829 c2 -4 0 -10 -6 -14 -5 -3 -10 -1 -10 4 0 6 -4 11 -10 11
-15 0 -12 -17 3 -23 7 -3 24 3 38 14 23 18 23 18 2 16 -12 0 -20 -4 -17 -8z"/>
<path d="M976 4733 c-6 -14 -5 -15 5 -6 7 7 10 15 7 18 -3 3 -9 -2 -12 -12z"/>
<path d="M893 4637 c0 -8 6 -14 14 -14 9 0 10 4 2 14 -6 7 -12 13 -14 13 -1 0
-2 -6 -2 -13z"/>
<path d="M877 4588 c17 -19 28 -24 18 -9 -3 6 2 14 12 19 13 8 10 10 -15 9
-29 -2 -30 -3 -15 -19z"/>
<path d="M576 4182 c-2 -4 0 -14 6 -22 8 -12 9 -12 5 2 -3 9 -1 19 6 22 9 3 9
5 0 5 -6 1 -14 -3 -17 -7z"/>
<path d="M555 4150 c-3 -5 -1 -10 4 -10 6 0 11 5 11 10 0 6 -2 10 -4 10 -3 0
-8 -4 -11 -10z"/>
<path d="M5135 4140 c3 -5 8 -10 11 -10 2 0 4 5 4 10 0 6 -5 10 -11 10 -5 0
-7 -4 -4 -10z"/>
<path d="M5139 4098 c-9 -30 -6 -37 12 -28 23 13 25 22 2 13 -11 -4 -14 -3 -9
5 4 7 5 12 2 12 -3 0 -6 -1 -7 -2z"/>
<path d="M5187 4039 c7 -7 15 -10 18 -7 3 3 -2 9 -12 12 -14 6 -15 5 -6 -5z"/>
<path d="M479 3993 c-13 -17 -13 -17 6 -3 11 8 22 16 24 17 2 2 0 3 -6 3 -6 0
-17 -8 -24 -17z"/>
<path d="M495 3980 c-8 -13 5 -13 25 0 13 8 13 10 -2 10 -9 0 -20 -4 -23 -10z"/>
<path d="M5195 3970 c-3 -5 -1 -10 4 -10 6 0 11 5 11 10 0 6 -2 10 -4 10 -3 0
-8 -4 -11 -10z"/>
<path d="M5230 3921 c0 -6 4 -13 10 -16 6 -3 7 1 4 9 -7 18 -14 21 -14 7z"/>
<path d="M5247 3836 c-4 -10 -1 -13 9 -9 7 3 14 9 14 14 0 14 -17 10 -23 -5z"/>
<path d="M5347 3579 c7 -7 15 -10 18 -7 3 3 -2 9 -12 12 -14 6 -15 5 -6 -5z"/>
<path d="M358 3534 c-4 -3 -4 -13 -1 -22 5 -11 3 -13 -7 -7 -9 6 -11 4 -5 -4
6 -10 11 -9 23 3 11 11 13 19 6 26 -6 6 -13 8 -16 4z"/>
<path d="M347 3473 c10 -3 9 -10 -2 -27 -8 -12 -12 -26 -8 -29 3 -4 -2 -7 -13
-7 -10 0 -15 -4 -9 -8 15 -11 17 -32 2 -32 -8 0 -7 -4 3 -10 13 -8 12 -10 -2
-10 -10 0 -18 -4 -18 -10 0 -5 8 -7 18 -3 15 6 15 4 -2 -16 -13 -14 -16 -25
-9 -32 7 -7 14 -5 23 6 10 12 10 15 0 15 -8 0 -9 4 -3 13 6 6 9 25 8 40 -2 22
2 27 14 22 13 -5 13 -4 4 6 -10 10 -9 17 5 33 9 11 11 16 5 12 -15 -9 -18 10
-3 19 13 8 3 25 -13 24 -9 0 -9 -2 0 -6z"/>
<path d="M315 3460 c-3 -5 -1 -10 4 -10 6 0 11 5 11 10 0 6 -2 10 -4 10 -3 0
-8 -4 -11 -10z"/>
<path d="M290 3379 c0 -5 5 -7 10 -4 6 3 10 8 10 11 0 2 -4 4 -10 4 -5 0 -10
-5 -10 -11z"/>
<path d="M5390 3249 c0 -5 5 -7 10 -4 6 3 10 8 10 11 0 2 -4 4 -10 4 -5 0 -10
-5 -10 -11z"/>
<path d="M239 3113 c-13 -16 -12 -17 4 -4 9 7 17 15 17 17 0 8 -8 3 -21 -13z"/>
<path d="M5413 3039 c-2 -23 3 -25 10 -4 4 8 3 16 -1 19 -4 3 -9 -4 -9 -15z"/>
<path d="M5394 3001 c4 -5 0 -12 -6 -14 -8 -3 -6 -6 5 -6 9 -1 17 6 17 14 0 8
-5 15 -11 15 -5 0 -8 -4 -5 -9z"/>
<path d="M5394 2895 c3 -23 12 -26 13 -5 1 11 -2 20 -7 20 -4 0 -7 -7 -6 -15z"/>
<path d="M5410 2860 c-8 -5 -15 -17 -15 -27 0 -10 -3 -23 -7 -28 -4 -6 2 -17
14 -24 16 -10 19 -10 12 1 -14 21 -11 62 6 75 18 15 11 17 -10 3z"/>
<path d="M5375 2690 c-3 -5 -1 -10 4 -10 6 0 11 5 11 10 0 6 -2 10 -4 10 -3 0
-8 -4 -11 -10z"/>
<path d="M293 2535 c0 -8 4 -12 9 -9 5 3 6 10 3 15 -9 13 -12 11 -12 -6z"/>
<path d="M341 2394 c0 -11 3 -14 6 -6 3 7 2 16 -1 19 -3 4 -6 -2 -5 -13z"/>
<path d="M335 2361 c-3 -5 -2 -12 3 -15 5 -3 9 1 9 9 0 17 -3 19 -12 6z"/>
<path d="M5366 2362 c-3 -5 1 -9 9 -9 8 0 12 4 9 9 -3 4 -7 8 -9 8 -2 0 -6 -4
-9 -8z"/>
<path d="M5355 2320 c3 -5 8 -10 11 -10 2 0 4 5 4 10 0 6 -5 10 -11 10 -5 0
-7 -4 -4 -10z"/>
<path d="M5296 2275 c4 -8 8 -15 10 -15 2 0 4 7 4 15 0 8 -4 15 -10 15 -5 0
-7 -7 -4 -15z"/>
<path d="M404 2198 l-19 -23 23 19 c21 18 27 26 19 26 -2 0 -12 -10 -23 -22z"/>
<path d="M5226 2081 c-3 -5 3 -11 15 -14 16 -4 18 -3 8 9 -13 16 -16 17 -23 5z"/>
<path d="M5270 2079 c0 -5 5 -7 10 -4 6 3 10 8 10 11 0 2 -4 4 -10 4 -5 0 -10
-5 -10 -11z"/>
<path d="M5186 1858 c3 -4 9 -8 15 -8 5 0 9 4 9 8 0 5 -7 9 -15 9 -8 0 -12 -4
-9 -9z"/>
<path d="M5102 1773 c8 -10 5 -18 -12 -33 -21 -18 -21 -19 -2 -17 12 0 18 5
16 9 -3 5 1 10 8 13 22 9 20 44 -2 42 -14 -1 -16 -4 -8 -14z"/>
<path d="M5002 1604 c4 -4 -4 -16 -18 -26 -20 -16 -22 -23 -13 -34 8 -10 8
-14 0 -14 -6 0 -11 -4 -11 -8 0 -5 6 -9 14 -9 7 0 13 7 11 16 -1 9 2 22 8 29
5 6 6 12 1 12 -5 1 2 7 15 14 21 12 22 14 5 20 -10 4 -15 4 -12 0z"/>
<path d="M715 1500 c-3 -6 1 -7 9 -4 18 7 21 14 7 14 -6 0 -13 -4 -16 -10z"/>
<path d="M917 1249 c4 -13 8 -18 11 -10 2 7 -1 18 -6 23 -8 8 -9 4 -5 -13z"/>
<path d="M4621 1136 c-15 -17 -1 -28 19 -15 11 6 12 9 2 9 -7 0 -10 5 -7 10 9
15 -1 12 -14 -4z"/>
<path d="M4356 885 c4 -8 8 -15 10 -15 2 0 4 7 4 15 0 8 -4 15 -10 15 -5 0 -7
-7 -4 -15z"/>
<path d="M997 883 c-10 -9 -9 -23 1 -23 5 0 9 7 9 15 0 17 -1 18 -10 8z"/>
<path d="M990 844 c0 -3 5 -14 10 -24 7 -13 7 -21 0 -25 -6 -4 -8 -11 -4 -16
10 -17 23 1 18 24 -3 12 -6 28 -6 35 -1 11 -18 18 -18 6z"/>
<path d="M4190 799 c-12 -9 -12 -10 3 -5 11 3 20 0 23 -9 5 -12 8 -12 20 0 18
17 18 31 1 16 -8 -6 -17 -7 -23 -1 -6 6 -15 5 -24 -1z"/>
<path d="M4103 756 c-17 -14 -33 -23 -37 -21 -3 3 -2 0 3 -6 5 -6 7 -19 4 -28
-3 -12 0 -11 12 4 9 11 21 19 27 17 8 -2 7 2 -1 11 -9 12 -8 16 5 21 22 9 24
8 18 -9 -4 -8 -1 -15 4 -15 10 0 8 37 -1 47 -3 2 -18 -7 -34 -21z"/>
<path d="M1015 760 c-3 -5 -3 -10 2 -10 4 0 2 -4 -4 -8 -9 -5 -3 -13 20 -26
19 -10 25 -11 14 -3 -14 11 -15 16 -5 20 11 4 11 6 0 6 -7 1 -11 5 -7 10 3 5
1 12 -4 15 -5 4 -12 2 -16 -4z"/>
<path d="M1015 660 c3 -5 8 -10 11 -10 2 0 4 5 4 10 0 6 -5 10 -11 10 -5 0 -7
-4 -4 -10z"/>
<path d="M3846 622 c-7 -12 12 -38 21 -29 4 5 1 12 -6 16 -11 7 -11 10 0 14 9
3 10 6 2 6 -6 1 -14 -3 -17 -7z"/>
<path d="M1078 584 c16 -14 20 -24 13 -28 -6 -4 -11 -12 -11 -19 0 -6 6 -2 14
9 9 12 11 23 5 30 -5 6 -5 15 -1 19 4 5 1 5 -6 1 -7 -4 -19 -4 -25 1 -7 4 -2
-2 11 -13z"/>
<path d="M3695 500 c-3 -5 -1 -10 4 -10 6 0 11 5 11 10 0 6 -2 10 -4 10 -3 0
-8 -4 -11 -10z"/>
<path d="M3416 481 c-3 -5 1 -11 9 -14 9 -4 12 -1 8 9 -6 16 -10 17 -17 5z"/>
<path d="M3278 442 c-9 -11 -13 -11 -19 0 -6 9 -9 9 -9 1 0 -16 17 -26 25 -14
3 6 12 8 20 4 8 -3 15 0 15 7 0 6 14 2 33 -11 17 -12 26 -16 20 -9 -22 23 -14
34 8 14 22 -19 22 -19 9 2 -10 16 -22 21 -52 20 -22 -1 -45 -7 -50 -14z"/>
<path d="M3446 438 c3 -5 10 -6 15 -3 13 9 11 12 -6 12 -8 0 -12 -4 -9 -9z"/>
<path d="M2625 431 c-2 -5 2 -17 10 -27 10 -13 13 -14 10 -3 -4 11 1 15 20 15
25 0 33 -10 15 -19 -6 -3 -5 -4 2 -3 17 3 17 31 1 32 -7 1 -14 2 -15 4 -9 6
-39 7 -43 1z"/>
<path d="M1170 401 c0 -6 4 -13 10 -16 6 -3 7 1 4 9 -7 18 -14 21 -14 7z"/>
<path d="M1215 400 c-4 -6 -4 -14 -1 -17 3 -4 6 0 7 8 0 8 3 6 8 -5 5 -12 10
-15 14 -9 4 6 0 16 -7 22 -10 9 -16 9 -21 1z"/>
<path d="M1278 353 c-10 -2 -18 -9 -18 -15 0 -6 3 -8 7 -5 3 4 16 -1 27 -10
19 -16 19 -16 7 -1 -7 9 -10 22 -6 28 3 5 5 9 3 9 -2 -1 -11 -3 -20 -6z"/>
<path d="M2395 320 c-3 -6 -14 -9 -22 -8 -9 2 -18 -3 -20 -9 -3 -9 4 -12 20
-11 14 1 24 5 21 9 -2 4 2 9 8 12 7 2 10 7 7 11 -4 4 -10 2 -14 -4z"/>
<path d="M2317 303 c-4 -3 2 -13 14 -21 26 -18 32 -12 9 10 -9 10 -20 15 -23
11z"/>
<path d="M2415 300 c-3 -6 1 -7 9 -4 18 7 21 14 7 14 -6 0 -13 -4 -16 -10z"/>
<path d="M2453 295 c0 -8 4 -12 9 -9 5 3 6 10 3 15 -9 13 -12 11 -12 -6z"/>
<path d="M1455 269 c-4 -6 -5 -12 -2 -15 2 -3 7 2 10 11 7 17 1 20 -8 4z"/>
<path d="M1542 266 c-3 -6 -7 -16 -8 -23 -3 -15 33 5 40 23 5 14 -23 14 -32 0z"/>
<path d="M1419 268 c-6 -21 -5 -37 2 -32 5 3 7 9 4 14 -3 4 1 11 7 13 10 4 10
6 1 6 -7 1 -13 0 -14 -1z"/>
<path d="M1735 249 c-4 -6 -5 -12 -2 -15 2 -3 7 2 10 11 7 17 1 20 -8 4z"/>
<path d="M1500 239 c0 -5 5 -7 10 -4 6 3 10 8 10 11 0 2 -4 4 -10 4 -5 0 -10
-5 -10 -11z"/>
<path d="M1800 234 c0 -8 -4 -13 -9 -9 -5 3 -12 1 -15 -4 -4 -5 2 -8 11 -7 16
3 33 36 19 36 -3 0 -6 -7 -6 -16z"/>
<path d="M1875 240 c-3 -5 -1 -10 4 -10 6 0 11 5 11 10 0 6 -2 10 -4 10 -3 0
-8 -4 -11 -10z"/>
<path d="M1900 239 c0 -4 8 -9 18 -11 10 -3 19 0 19 6 0 7 -9 12 -19 12 -10 0
-18 -3 -18 -7z"/>
<path d="M1950 241 c0 -10 19 -25 25 -20 1 2 -3 10 -11 17 -8 7 -14 8 -14 3z"/>
<path d="M2210 239 c0 -5 5 -7 10 -4 6 3 10 8 10 11 0 2 -4 4 -10 4 -5 0 -10
-5 -10 -11z"/>
<path d="M1846 222 c-3 -5 1 -9 9 -9 8 0 12 4 9 9 -3 4 -7 8 -9 8 -2 0 -6 -4
-9 -8z"/>
</g>
</svg>
